<?xml version="1.0" encoding="utf-8"?>
<svg version="1.1" xmlns="http://www.w3.org/2000/svg" xmlns:xlink="http://www.w3.org/1999/xlink" width="72" height="128" viewBox="0 0 72 128">
  <path fill="white" d="M71.24,53.262l0,36.95c0,9.101 -1.684,16.117 -5.244,21.56l-0.003,0.005l-0.001,0c-1.216,1.859 -2.651,3.535 -4.313,5.047c-6.543,5.961 -15.924,8.833 -25.669,11.135c-9.488,-2.241 -19.193,-5.236 -25.673,-11.135c-1.657,-1.509 -3.09,-3.18 -4.306,-5.033l0,0l-0.002,-0.003c-0.219,-0.335 -0.432,-0.676 -0.638,-1.023l-0.001,-0.003l0,0c-3.135,-5.294 -4.63,-12.002 -4.63,-20.55l0,-36.95l70.48,0Zm-29.097,37.647l28.295,0l0,-11.243l-28.257,0l0,-25.612l-12.334,0l0,25.612l-28.291,0l0,11.243l28.291,0l0,34.509l6.163,1.624l6.133,-1.606l0,-34.527Zm-16.841,20.883l0,-13.937l-1.759,0.043l0,-2.58c-1.788,0.427 -4.702,-0.549 -6.006,-0.549c-1.439,0 -2.186,0.632 -2.186,0.632c0,0 -0.738,-0.629 -2.191,-0.632c-1.303,0 -4.221,0.982 -6.007,0.549l0,2.537l-1.762,0l-0.001,12.907l0.001,0.003l0.638,1.023l0.002,0.003l7.608,0.001l0,1.036l3.415,0.044l0,-1.08l8.248,0Zm39.804,-13.966l0,-2.539c-1.79,0.427 -4.708,-0.55 -6.012,-0.55c-1.44,0 -2.188,0.633 -2.188,0.633c0,0 -0.74,-0.63 -2.194,-0.633c-1.304,0 -4.225,0.983 -6.013,0.55l0,2.539l-1.764,0l-0.001,13.95l8.258,0.001l0,1.038l3.418,0l0,-1.038l7.382,0l0.004,-0.005l0.871,-1.43l0,-12.516l-1.761,0Zm-48.848,-0.953c0,0 0.273,-0.551 1.235,-0.519c1.233,0.038 2.44,0.379 3.412,0.534c0.444,0.07 0.842,0.106 1.165,0.05l0,11.999c0,0 -0.167,0.126 -0.566,0.184c-0.241,0.037 -0.565,0.047 -0.989,-0.01c-0.259,-0.035 -0.556,-0.096 -0.892,-0.193c-2.327,-0.664 -3.365,0.103 -3.365,0.103l1.055,-1.122l-1.055,1.079l0,-12.105Zm41.554,-0.03c0,0 0.274,-0.551 1.238,-0.52c1.234,0.039 2.442,0.38 3.416,0.535c0.443,0.071 0.843,0.106 1.166,0.05l0,12.012c0,0 -0.169,0.126 -0.568,0.185c-0.24,0.036 -0.565,0.046 -0.989,-0.011c-0.259,-0.035 -0.557,-0.097 -0.894,-0.193c-2.329,-0.665 -3.369,0.06 -3.369,0.06l0,-12.118Zm-1.822,12.118l-0.039,-0.024c0,0 -1.001,-0.702 -3.33,-0.036c-0.075,0.022 -0.145,0.039 -0.215,0.057c-1.315,0.333 -1.959,0.106 -2.16,0.004l-0.071,-0.044l0,-12.01l0.041,0.007c1.027,0.179 2.742,-0.536 4.538,-0.592c0.962,-0.031 1.236,0.52 1.236,0.52l0,12.118Zm-42.7,-12.608c0.889,0.003 1.143,0.513 1.143,0.513l0.003,0.007l0,12.105l-0.203,-0.105c0,0 -0.838,-0.571 -3.162,0.045c-0.075,0.02 -0.145,0.039 -0.216,0.057c-1.312,0.333 -2.186,-0.012 -2.197,-0.019l-0.031,-0.019l0,-11.957c1.026,0.179 2.779,-0.57 4.574,-0.626c0.027,-0.001 0.053,-0.001 0.078,-0.001l0.011,0Zm10.169,-36.256l0,-2.511c-1.771,0.42 -4.657,-0.544 -5.946,-0.544c-1.424,0 -2.165,0.624 -2.165,0.624c0,0 -0.731,-0.62 -2.169,-0.624c-1.29,-0.003 -4.325,0.932 -6.096,0.505l0,2.51l-1.741,0l0,13.977l8.312,0.041l0,1.026l3.383,0l0,-1.026l8.288,0l0,-13.978l-1.866,0Zm41.611,0.031l0,-2.535c-1.79,0.423 -4.706,-0.551 -6.009,-0.551c-1.44,0 -2.19,0.63 -2.19,0.63c0,0 -0.735,-0.626 -2.189,-0.63c-1.303,-0.003 -4.221,0.982 -6.011,0.551l0,2.535l-1.755,0l0,13.937l8.246,0l0,1.036l3.42,0l0,-1.036l8.246,0l0,-13.937l-1.758,0Zm-9.337,11.125c0,0 -1.038,-0.727 -3.36,-0.065c-1.8,0.512 -2.451,0.017 -2.451,0.017l0,-12c1.03,0.179 2.786,-0.527 4.578,-0.579c0.965,-0.031 1.233,0.52 1.233,0.52l0,12.107Zm1.824,0l0,-12.107c0,0 0.276,-0.551 1.239,-0.52c1.791,0.052 3.545,0.758 4.575,0.579l0,12c0,0 -0.651,0.495 -2.449,-0.017c-2.33,-0.662 -3.365,0.065 -3.365,0.065Zm-43.116,0c0,0 -1.043,-0.728 -3.388,-0.066c-1.812,0.513 -2.466,0.018 -2.466,0.018l0,-12.016c1.037,0.18 2.803,-0.526 4.609,-0.58c0.971,-0.03 1.245,0.521 1.245,0.521l0,12.123Zm1.804,0.08l0,-12.2c0,0 0.271,-0.554 1.224,-0.524c1.776,0.054 3.592,0.687 4.611,0.506l0,12.092c0,0 -0.749,0.46 -2.527,-0.055c-2.304,-0.667 -3.308,0.181 -3.308,0.181Zm37.41,-24.837c-0.904,-1.073 -1.491,-2.491 -2.481,-3.119c-0.499,-0.259 -0.826,-0.833 -0.171,-1.196c0.652,-0.189 1.266,0.402 2.05,1.479c0.204,0.259 0.456,0.537 0.677,0.829c1.136,1.282 1.291,2.651 2.363,2.653c1.401,0.07 2.708,-0.254 3.631,-0.82c2.913,1.308 8.278,0.713 9.62,-0.198c2.555,-1.734 0.969,-5.418 -1.569,-6.744c-5.2,-2.512 -9.845,-0.439 -11.132,0.149c-1.178,-0.795 -3.118,-1.159 -5.57,-1.097c-2.695,0.176 -3.959,0.567 -5.729,1.45c-3.26,-1.903 -7.75,-1.82 -10.982,-0.02c-1.312,-1.046 -3.781,-1.41 -6.232,-1.334c-2.041,0.103 -3.98,0.422 -5.11,1.154c-1.416,-1.041 -6.199,-2.867 -11.804,-0.535c-1.182,-0.405 -3.694,-1.798 -7.112,-0.661c-4.155,1.381 -3.568,5.176 -2.206,6.965c1.847,2.461 5.342,2.047 6.46,0.787c-0.285,-0.679 -0.803,-1.19 -1.339,-1.877c-0.456,-0.585 -0.919,-1.065 -1.197,-1.172c-0.95,-0.004 -0.611,-1.006 -0.277,-1.093c1.054,-0.407 2.397,1.451 3.68,2.995c0.663,0.798 1.009,2.095 1.912,2.088c1.968,-0.033 2.802,-0.605 3.497,-0.986c1.135,0.66 6.55,1.714 10.687,0.045c0.566,0.422 2.837,1.607 5.753,0.138c-1.133,-1.191 -1.698,-2.426 -2.77,-3.239c-0.714,-0.338 -0.58,-1.025 -0.22,-1.149c0.762,-0.232 1.531,0.584 2.21,1.496c0.4,0.537 0.843,1.137 1.265,1.585c0.785,0.912 1.458,2.042 2.226,2.057c1.626,0.036 2.507,-0.394 3.185,-0.933c0.467,0.336 1.052,0.611 2.119,0.797c0.766,0.133 1.712,0.235 3.186,0.237c1.921,-0.025 3.349,-0.168 4.258,-0.448c0.581,-0.172 1.045,-0.482 1.273,-0.677c0.062,-0.009 2.759,1.711 5.849,0.394Zm-15.261,-1.061c-1.536,-0.684 -2.717,-4.229 -3.171,-4.683c-0.183,-0.179 2.734,-1.216 5.687,-0.963c5.03,0.426 5.078,3.543 6.292,5.115c0.439,0.57 -4.169,1.847 -8.808,0.531Zm30.919,-0.999c-0.426,0.949 -3.547,2.146 -8.213,0.831c-1.541,-0.686 -2.736,-4.212 -3.186,-4.665c-0.182,-0.181 2.65,-1.205 5.606,-0.988c5.02,0.371 6.29,3.719 5.793,4.822Zm-53.65,0.77c-1.54,-0.683 -2.711,-4.204 -3.2,-4.692c-0.168,-0.193 2.641,-1.206 5.597,-0.989c5.071,0.375 5.156,3.587 6.364,5.132c0.447,0.572 -4.096,1.861 -8.761,0.549Zm32.462,-8.909c0,-6.766 -5.269,-12.069 -12,-12.069c-6.628,0 -12.002,5.403 -12.002,12.069c0,0.318 0.071,0.939 0.176,1.593c3.451,-0.805 8.029,-0.651 10.063,0.97c3.212,-1.842 8.065,-1.889 11.513,-0.005c1.391,-0.716 1.943,-0.829 2.147,-0.9c0.043,-0.473 0.103,-1.327 0.103,-1.658Zm-10.625,0.091c-0.245,0.716 -2.766,0.945 -3.229,0.013c-0.184,-0.369 -0.438,-1.324 -0.095,-1.125c0.561,0.327 2.59,0.096 2.974,0c0.339,-0.088 0.118,-0.563 0.327,-0.505c0.25,0.07 0.25,0.939 0.023,1.617Zm-14.019,-4.484c-0.779,-0.774 -2.332,-1.443 -4.352,-1.28c-4.133,0.326 -6.855,0.059 -8.418,-0.163c-2.675,-0.387 -4.337,-0.009 -5.673,-0.009c-4.067,0 0.113,0.368 0.59,0.555c1.914,0.759 5.774,1.721 8.81,1.498c1.482,-0.104 3.965,0.804 4.392,0.953c1.091,0.392 3.066,1.031 4.133,1.011c0.057,-0.49 0.309,-1.951 0.518,-2.565Zm47.014,-2.082c-0.205,-0.033 -0.981,-0.136 -1.477,-0.134c-0.657,0.003 -4.964,0.024 -6.142,0.205c-2.41,0.381 -7.074,0.185 -9.631,0.087c-1.911,-0.076 -4.111,0.675 -4.782,1.037c0,0 0.735,1.85 0.784,3.109c0.812,0.144 1.594,-0.887 3.913,-0.85c2.416,0.043 8.362,-0.283 11.37,-1.462c2.248,-0.876 4.136,-1.316 5.664,-1.627c0.511,-0.107 1.322,-0.207 0.301,-0.365Zm-27.06,2.597c-0.634,-0.525 -1.464,-0.756 -1.782,-0.525l0.011,0.108c0.065,0.773 -0.501,1.452 -1.27,1.523c-0.769,0.068 -1.448,-0.509 -1.512,-1.279l0,-0.059c-0.502,-0.16 -1.302,0.118 -1.411,0.075c-0.064,-0.03 -0.404,-1.46 0.038,-1.641c1.204,-0.493 5.085,-0.735 6.213,1.457c0.132,0.266 0.05,0.618 -0.287,0.341Zm-9.937,-0.239c-0.038,0.776 -0.693,1.371 -1.467,1.332c-0.771,-0.036 -1.36,-0.703 -1.323,-1.472l0.013,-0.155c-0.119,-0.184 -0.747,-0.389 -1.679,0.181c-0.469,0.289 -0.994,0.091 -0.18,-0.619c0.865,-0.755 1.685,-1.193 2.408,-1.284l0.023,-0.005c1.219,-0.085 2.803,0.166 3.544,0.469c0.307,0.126 -0.012,1.644 -0.082,1.626c-0.252,-0.057 -0.8,-0.29 -1.261,-0.184l0.004,0.111Zm-6.688,-5.382c-2.078,-1.686 -3.99,-2.046 -7.037,-3.486c-0.691,-0.326 -1.85,-1.111 -1.909,-1.143c-0.082,-0.059 -0.235,-0.156 -0.423,-0.27c-0.178,0.573 -0.543,1.353 -0.876,1.789c0.472,0.617 3.88,4.527 8.239,5.746c0.476,-0.84 1.247,-1.807 2.006,-2.636Zm25.771,-4.995c-0.313,0.173 -1.043,0.624 -1.29,0.809c-1.665,1.263 -5.278,2.958 -6.11,3.888c0.663,0.592 1.644,1.652 2.086,2.542c0.406,0.018 1.572,-0.936 3.884,-3.673c0.742,-0.875 1.53,-1.335 2.959,-2.135c-0.589,-0.423 -1.098,-0.916 -1.529,-1.431Zm-27.447,-4.478c0.143,0.235 0.327,0.537 0.59,0.974c0.685,1.14 1.746,5.437 3.116,6.861c0.732,-0.499 1.996,-1.141 2.714,-1.401c-0.166,-0.278 -0.934,-1.6 -1.789,-2.725c-1.645,-2.197 -2.826,-3.37 -2.96,-3.559c-0.444,-0.007 -1.2,0.016 -1.671,-0.15Zm19.03,-0.133c-1.41,1.201 -3.567,4.113 -3.841,6.443c0.662,0.269 2.411,1.108 2.65,1.306c1.735,-1.72 1.382,-3.617 2.06,-5.083c0.294,-0.634 0.578,-1.132 0.742,-1.417c-0.562,-0.307 -1.17,-0.744 -1.611,-1.249Zm-27.522,0.535c0.194,-0.165 0.459,-0.144 0.701,-0.065c2.038,0.662 4.961,0.212 6.324,-1.959c0.191,-0.303 0.569,-0.41 0.897,-0.276c1.409,0.575 4.295,0.841 7.809,-2.748c0.264,-0.27 0.692,-0.236 0.985,0.002c3.087,2.493 6.303,2.648 9.566,0.467c0.203,-0.137 0.459,-0.312 0.684,-0.219c0.226,0.091 0.391,0.289 0.442,0.529c1.042,4.847 6.071,4.417 7.586,4.171c0.195,-0.031 0.395,0.017 0.554,0.133c0.159,0.117 0.264,0.295 0.291,0.492c0.164,1.134 1.414,3.332 3.577,4.454c1.85,0.958 3.864,0.884 5.992,-0.219c0.213,-0.11 0.467,-0.11 0.681,0.005c2.73,1.467 5.187,1.552 6.74,0.238c1.093,-0.928 1.537,-2.438 1.102,-3.759c-0.485,-1.473 -1.94,-2.389 -3.993,-2.514c-0.345,-0.022 -0.628,-0.282 -0.681,-0.624c-0.183,-1.176 -0.835,-2.137 -1.889,-2.782c-1.605,-0.984 -3.966,-1.1 -6.316,-0.31c-0.206,0.068 -0.434,0.043 -0.619,-0.073c-0.186,-0.115 -0.31,-0.307 -0.342,-0.526c-0.129,-0.908 -0.52,-2.137 -1.652,-2.833c-1.192,-0.733 -2.993,-0.715 -5.209,0.051c-0.344,0.12 -0.724,-0.032 -0.892,-0.356c-1.425,-2.746 -3.426,-4.53 -5.787,-5.159c-2.113,-0.564 -4.463,-0.154 -6.445,1.126c-0.259,0.168 -0.595,0.156 -0.843,-0.03c-1.994,-1.505 -4.381,-1.986 -6.548,-1.318c-2.112,0.647 -3.72,2.306 -4.531,4.666c-0.067,0.191 -0.207,0.348 -0.389,0.43c-0.184,0.085 -0.394,0.089 -0.581,0.014c-3.234,-1.305 -5.875,-1.273 -7.636,0.097c-1.514,1.176 -1.981,3.029 -1.914,3.57c0.049,0.374 -0.174,0.719 -0.539,0.808l-0.774,0.187c-1.792,0.411 -3.647,0.838 -4.206,3.707c-0.062,0.319 -0.325,0.561 -0.649,0.593c-3.117,0.313 -5.153,1.474 -5.582,3.186c-0.304,1.206 0.253,2.573 1.355,3.323c1.108,0.755 2.443,0.676 3.665,-0.215c0.201,-0.148 0.463,-0.183 0.694,-0.093c1.83,0.704 4.798,0.564 6.598,-0.887c1.305,-1.052 1.816,-2.604 1.522,-4.612c-0.038,-0.254 0.057,-0.507 0.252,-0.672Zm20.839,5.32c0.327,-2.249 -0.419,-5.983 -0.857,-6.917c-0.558,-0.144 -1.134,-0.34 -1.607,-0.569c-0.061,0.286 -0.481,1.81 -0.621,4.053c-0.074,1.203 -0.043,3.033 0.177,3.433c0.708,-0.071 1.893,-0.096 2.908,0Zm-29.025,-3.16c-1.285,0 -2.316,0.027 -3.22,1.015c-0.967,1.054 -0.732,1.633 -0.912,1.823c-0.265,0.261 -0.927,-0.199 -0.915,-0.721c0.056,-2.479 3.033,-3.446 4.798,-3.248c0.673,0.081 0.846,1.131 0.249,1.131Zm57.553,-1.954c1.847,-0.43 4.068,0.929 3.439,3.428c-0.107,0.427 -1.153,0.455 -1.116,0.018c0.159,-2.093 -0.869,-2.262 -2.238,-2.247c-0.517,0.013 -0.479,-1.112 -0.085,-1.199Zm-52.324,-2.206c-1.879,0.208 -2.429,1.131 -2.765,2.19c-0.136,0.398 -1.192,0.113 -1.024,-0.671c0.498,-2.329 3.01,-2.899 3.922,-2.7c0.307,0.06 0.212,1.148 -0.133,1.181Zm44.406,-1.507c1.798,-1.033 5.476,-0.848 6.619,2.451c0.196,0.562 -0.544,1.515 -1.004,0.666c-1.382,-2.556 -3.616,-2.549 -5.482,-1.833c-0.417,0.165 -0.795,-0.903 -0.133,-1.284Zm-49.931,0.309c-0.206,-0.126 -0.355,-0.221 -0.417,-0.261c-3.451,-2.306 -1.86,0.66 -0.525,1.968c0,0 0.072,-1.016 0.942,-1.707Zm7.133,-1.313c0.387,-2.056 2.386,-5.051 6.953,-3.885c0.559,0.143 0.23,1.573 -0.373,1.333c-3.333,-1.315 -5.007,1.228 -5.547,3.235c-0.074,0.272 -1.19,0.17 -1.033,-0.683Zm50.969,0.376c0.281,-0.36 0.673,-0.78 0.848,-0.985c0.211,-0.267 0.941,-1.487 -1.016,-0.469c-0.1,0.052 -0.414,0.234 -0.653,0.37c0,0 0.709,0.489 0.821,1.084Zm-15.9,-3.177c1.669,-0.593 4.509,-0.857 5.268,1.948c0.217,0.785 -0.74,1.157 -0.952,0.608c-0.775,-2.03 -2.232,-1.949 -3.973,-1.392c-0.801,0.264 -0.608,-1.07 -0.343,-1.164Zm-13.635,-3.156c1.203,-1.968 7.492,-3.8 10.719,1.765c0.342,0.606 -0.115,0.959 -0.478,1.209c-0.255,0.182 -0.408,-0.235 -0.575,-0.509c-2.74,-4.356 -7.694,-3.207 -9.025,-1.186c-0.27,0.409 -0.991,-0.701 -0.641,-1.279Zm-10.135,0.315c1.105,-1.76 4.895,-4.469 8.254,-1.487c0.378,0.33 -0.071,1.556 -0.492,1.271c-3.072,-2.125 -5.489,-0.418 -6.77,1.118c-0.614,0.731 -1.255,-0.476 -0.992,-0.902Zm24.938,-0.253c0.104,-0.245 0.199,-0.461 0.277,-0.631c0.739,-1.556 0.34,-1.945 -0.435,-1.256c-0.876,0.781 -1.427,1.337 -1.848,1.785c0,0 0.137,0.571 0.607,0.773c0.424,0.182 1.106,0 1.106,0c0,0 0.124,-0.257 0.293,-0.671Zm-30.281,-0.883c-0.432,-0.569 -1.071,-1.293 -1.965,-2.079c-0.602,-0.537 -1.099,-0.258 -0.737,0.801c0.141,0.41 0.264,0.773 0.377,1.116c0,0 1.016,-0.13 2.325,0.162Zm15.714,-3.379c-0.123,-1.045 -0.259,-1.903 -0.409,-2.398c-0.384,-1.261 -0.844,-0.27 -0.915,0.118c-0.086,0.527 -0.206,1.251 -0.342,2.09c0,0 1.143,0.656 1.666,0.19Z" />
</svg>
