<?xml version="1.0" encoding="UTF-8" standalone="no"?><!DOCTYPE svg PUBLIC "-//W3C//DTD SVG 1.1//EN" "http://www.w3.org/Graphics/SVG/1.1/DTD/svg11.dtd"><svg width="100%" height="100%" viewBox="0 0 1859 684" version="1.1" xmlns="http://www.w3.org/2000/svg" xmlns:xlink="http://www.w3.org/1999/xlink" xml:space="preserve" xmlns:serif="http://www.serif.com/" style="fill-rule:evenodd;clip-rule:evenodd;stroke-linejoin:round;stroke-miterlimit:1.41421;"><g><path d="M442.467,147.958l24.416,0l18.829,73.567l20.425,-73.883l20.109,0l20.587,73.883l18.671,-73.567l23.938,0l-31.917,112.346l-21.225,0l-20.425,-71.012l-20.429,71.012l-21.063,0l-31.916,-112.346Z" style="fill:#231f20;fill-rule:nonzero;"/><path d="M647.867,214.983l-12.13,-36.383l-12.287,36.383l24.417,0Zm-22.821,-67.662l22.025,0l40.05,112.346l-23.934,0l-8.299,-24.259l-38.459,0l-8.137,24.259l-23.3,0l40.054,-112.346Z" style="fill:#231f20;fill-rule:nonzero;"/><path d="M710.913,169.342l-28.084,0l0,-21.384l79.15,0l0,21.384l-28.083,0l0,90.325l-22.983,0l0,-90.325Z" style="fill:#231f20;fill-rule:nonzero;"/><path d="M767.738,244.667l13.724,-17.075c7.496,6.541 16.592,12.608 27.767,12.608c8.938,0 14.358,-4.471 14.358,-11.013l0,-0.162c0,-5.583 -3.187,-9.096 -19.145,-15.158c-19.788,-7.663 -32.079,-15.159 -32.079,-34.313l0,-0.317c0,-19.47 15.004,-32.712 36.545,-32.712c13.088,0 25.855,4.467 36.067,13.721l-12.925,17.558c-7.025,-5.746 -15.163,-10.375 -23.779,-10.375c-7.979,0 -12.925,3.988 -12.925,9.733l0,0.159c0,6.383 3.829,9.417 21.221,16.6c19.471,7.658 30.004,15.954 30.004,33.35l0,0.321c0,20.745 -15.8,33.512 -37.5,33.512c-14.204,0 -29.046,-4.95 -41.333,-16.437Z" style="fill:#231f20;fill-rule:nonzero;"/><path d="M936.583,204.454l0,-1.121c0,-22.021 -11.171,-35.904 -26.65,-35.904c-15.637,0 -26.65,13.725 -26.65,35.746l0,1.117c0,22.025 11.33,35.908 26.809,35.908c15.479,0 26.491,-13.725 26.491,-35.746Zm-77.075,0.475l0,-1.912c0,-33.513 21.063,-56.971 50.584,-56.971c29.683,0 50.429,23.296 50.429,56.65l0,1.917c0,33.35 -21.067,56.966 -50.588,56.966c-29.679,0 -50.425,-23.296 -50.425,-56.65Z" style="fill:#231f20;fill-rule:nonzero;"/><path d="M978.883,147.958l21.225,0l42.771,65.109l0,-65.109l22.659,0l0,111.709l-19.788,0l-44.204,-67.504l0,67.504l-22.663,0l0,-111.709Z" style="fill:#231f20;fill-rule:nonzero;"/><rect x="1124.44" y="147.958" width="23.142" height="111.708" style="fill:#231f20;fill-rule:nonzero;"/><path d="M1170.72,147.958l21.225,0l42.771,65.109l0,-65.109l22.658,0l0,111.709l-19.788,0l-44.204,-67.504l0,67.504l-22.662,0l0,-111.709Z" style="fill:#231f20;fill-rule:nonzero;"/><path d="M1271.59,244.667l13.725,-17.075c7.5,6.541 16.6,12.608 27.766,12.608c8.938,0 14.367,-4.471 14.367,-11.013l0,-0.162c0,-5.583 -3.196,-9.096 -19.154,-15.158c-19.788,-7.663 -32.075,-15.159 -32.075,-34.313l0,-0.317c0,-19.47 15,-32.712 36.546,-32.712c13.087,0 25.85,4.467 36.062,13.721l-12.925,17.558c-7.021,-5.746 -15.158,-10.375 -23.775,-10.375c-7.979,0 -12.929,3.988 -12.929,9.733l0,0.159c0,6.383 3.829,9.417 21.225,16.6c19.471,7.658 30,15.954 30,33.35l0,0.321c0,20.745 -15.796,33.512 -37.5,33.512c-14.204,0 -29.042,-4.95 -41.333,-16.437Z" style="fill:#231f20;fill-rule:nonzero;"/><path d="M1386.5,169.342l-28.087,0l0,-21.384l79.154,0l0,21.384l-28.088,0l0,90.325l-22.979,0l0,-90.325Z" style="fill:#231f20;fill-rule:nonzero;"/><rect x="1454.01" y="147.958" width="23.137" height="111.708" style="fill:#231f20;fill-rule:nonzero;"/><path d="M1521.68,169.342l-28.087,0l0,-21.384l79.154,0l0,21.384l-28.088,0l0,90.325l-22.979,0l0,-90.325Z" style="fill:#231f20;fill-rule:nonzero;"/><path d="M1586.96,216.258l0,-68.3l23.142,0l0,68.463c0,15.8 7.496,23.617 19.467,23.617c11.97,0 19.466,-7.659 19.466,-23.138l0,-68.942l22.984,0l0,67.825c0,30.796 -16.917,45.638 -42.771,45.638c-25.692,0 -42.288,-15 -42.288,-45.163Z" style="fill:#231f20;fill-rule:nonzero;"/><path d="M1714.32,169.342l-28.088,0l0,-21.384l79.154,0l0,21.384l-28.087,0l0,90.325l-22.979,0l0,-90.325Z" style="fill:#231f20;fill-rule:nonzero;"/><path d="M1781.03,147.958l71.971,0l0,20.905l-48.987,0l0,24.099l43.083,0l0,20.905l-43.083,0l0,24.896l49.629,0l0,20.904l-72.613,0l0,-111.709Z" style="fill:#231f20;fill-rule:nonzero;"/><rect x="443.233" y="323.729" width="6.629" height="61.863" style="fill:#231f20;fill-rule:nonzero;"/><path d="M466.296,323.729l6.275,0l32.346,48.696l0,-48.696l6.537,0l0,61.863l-5.566,0l-33.138,-49.842l0,49.842l-6.454,0l0,-61.863Z" style="fill:#231f20;fill-rule:nonzero;"/><path d="M540.608,329.917l-17.316,0l0,-6.188l41.354,0l0,6.188l-17.408,0l0,55.675l-6.63,0l0,-55.675Z" style="fill:#231f20;fill-rule:nonzero;"/><path d="M576.483,323.729l37.738,0l0,6.1l-31.108,0l0,21.563l27.925,0l0,6.012l-27.925,0l0,22.088l31.549,0l0,6.1l-38.179,0l0,-61.863Z" style="fill:#231f20;fill-rule:nonzero;"/><path d="M647.529,355.546c10.075,0 15.642,-5.038 15.642,-12.904l0,-0.175c0,-8.134 -5.654,-12.638 -14.934,-12.638l-14.049,0l0,25.717l13.341,0Zm-19.971,-31.817l21.121,0c7.071,0 12.725,2.121 16.263,5.746c3.091,3.096 4.858,7.512 4.858,12.725l0,0.179c0,9.809 -6.096,15.725 -14.671,17.85l16.617,25.363l-7.954,0l-15.555,-24.038l-14.049,0l0,24.038l-6.63,0l0,-61.863Z" style="fill:#231f20;fill-rule:nonzero;"/><path d="M683.492,323.729l6.275,0l32.341,48.696l0,-48.696l6.542,0l0,61.863l-5.567,0l-33.141,-49.842l0,49.842l-6.45,0l0,-61.863Z" style="fill:#231f20;fill-rule:nonzero;"/><path d="M778.488,363.321l-11.667,-31.371l-11.754,31.371l23.421,0Zm-14.851,-39.946l6.542,0l23.596,62.217l-7.071,0l-6.008,-16.259l-27.838,0l-6.012,16.259l-6.804,0l23.595,-62.217Z" style="fill:#231f20;fill-rule:nonzero;"/><path d="M811.796,329.917l-17.321,0l0,-6.188l41.358,0l0,6.188l-17.408,0l0,55.675l-6.629,0l0,-55.675Z" style="fill:#231f20;fill-rule:nonzero;"/><rect x="848.288" y="323.729" width="6.629" height="61.863" style="fill:#231f20;fill-rule:nonzero;"/><path d="M915.362,355.013l0,-0.617c0,-14.933 -8.395,-25.542 -19.795,-25.542c-11.404,0 -19.709,10.517 -19.709,25.454l0,0.621c0,14.933 8.396,25.538 19.796,25.538c11.4,0 19.708,-10.517 19.708,-25.454Zm-46.395,0.091l0,-0.708c0,-18.204 10.954,-31.638 26.687,-31.638c15.729,0 26.513,13.346 26.513,31.463l0,0.708c0,18.204 -10.871,31.638 -26.6,31.638c-15.821,0 -26.6,-13.35 -26.6,-31.463Z" style="fill:#231f20;fill-rule:nonzero;"/><path d="M935.679,323.729l6.275,0l32.342,48.696l0,-48.696l6.542,0l0,61.863l-5.567,0l-33.142,-49.842l0,49.842l-6.45,0l0,-61.863Z" style="fill:#231f20;fill-rule:nonzero;"/><path d="M1030.67,363.321l-11.663,-31.371l-11.754,31.371l23.417,0Zm-14.842,-39.946l6.538,0l23.596,62.217l-7.071,0l-6.013,-16.259l-27.833,0l-6.013,16.259l-6.8,0l23.596,-62.217Z" style="fill:#231f20;fill-rule:nonzero;"/><path d="M1057.35,323.729l6.629,0l0,55.763l28.725,0l0,6.1l-35.354,0l0,-61.863Z" style="fill:#231f20;fill-rule:nonzero;"/><path d="M1153.85,336.546l0,-0.088c0,-4.683 -3.275,-8.22 -7.779,-8.22c-4.95,0 -8.396,3.712 -8.396,8.395l0,0.175c0,3.538 1.417,6.542 5.746,11.846c6.979,-3.096 10.429,-6.983 10.429,-12.108Zm1.854,36.408l-14.671,-17.675c-7.158,3.45 -10.162,8.663 -10.162,13.788l0,0.266c0,6.45 4.591,11.396 11.312,11.396c5.3,0 9.721,-3.004 13.521,-7.775Zm3.713,4.329c-4.775,5.654 -10.43,9.105 -17.763,9.105c-10.075,0 -17.5,-6.98 -17.5,-16.701l0,-0.27c0,-7.863 4.863,-14.05 13.433,-18.379c-4.241,-5.48 -6.099,-9.367 -6.099,-14.138l0,-0.267c0,-7.512 5.833,-13.875 14.758,-13.875c8.133,0 13.696,6.096 13.696,13.346l0,0.263c0,7.512 -5.038,12.462 -13.075,16.262l12.458,15.021c2.3,-3.887 4.154,-8.304 6.008,-13.429l5.392,2.208c-2.208,6.009 -4.592,11.313 -7.421,15.817l9.279,10.783l-5.037,3.625l-8.129,-9.371Z" style="fill:#231f20;fill-rule:nonzero;"/><path d="M1225.24,357.754c9.633,0 15.641,-5.566 15.641,-14.05l0,-0.091c0,-9.013 -6.008,-13.784 -15.375,-13.784l-11.666,0l0,27.925l11.4,0Zm-18.03,-34.025l18.651,0c13.166,0 21.741,7.425 21.741,19.621l0,0.175c0,13.079 -9.9,20.15 -22.537,20.238l-11.225,0l0,21.829l-6.63,0l0,-61.863Z" style="fill:#231f20;fill-rule:nonzero;"/><path d="M1258.55,362.525l0,-38.796l6.629,0l0,38.621c0,11.667 5.921,18.117 15.642,18.117c9.458,0 15.467,-6.096 15.467,-17.854l0,-38.884l6.625,0l0,38.446c0,15.904 -8.925,24.392 -22.271,24.392c-13.167,0 -22.092,-8.488 -22.092,-24.042Z" style="fill:#231f20;fill-rule:nonzero;"/><path d="M1338.97,357.312l-14.229,0l0,22.271l15.024,0c8.925,0 14.584,-4.066 14.584,-11.133l0,-0.179c0,-6.892 -5.392,-10.959 -15.379,-10.959Zm12.725,-17.233c0,-6.362 -4.771,-10.337 -12.988,-10.337l-13.966,0l0,21.741l13.345,0c8.221,0 13.609,-4.066 13.609,-11.225l0,-0.179Zm-33.584,-16.35l20.95,0c6.538,0 11.842,1.858 15.288,5.304c2.562,2.563 4.062,6.009 4.062,10.163l0,0.175c0,8.221 -5.037,12.375 -10.162,14.404c7.246,2.121 12.816,6.454 12.816,14.85l0,0.262c0,10.521 -8.575,16.705 -21.566,16.705l-21.388,0l0,-61.863Z" style="fill:#231f20;fill-rule:nonzero;"/><path d="M1373.78,323.729l6.629,0l0,55.763l28.721,0l0,6.1l-35.35,0l0,-61.863Z" style="fill:#231f20;fill-rule:nonzero;"/><rect x="1421.32" y="323.729" width="6.629" height="61.863" style="fill:#231f20;fill-rule:nonzero;"/><path d="M1442,355.013l0,-0.53c0,-18.733 11.666,-31.637 27.133,-31.637c8.484,0 13.959,3.096 18.821,7.6l-4.063,5.037c-3.891,-3.708 -8.574,-6.45 -14.849,-6.45c-11.4,0 -20.15,10.43 -20.15,25.363l0,0.354c0,15.2 8.75,25.542 20.15,25.542c6.362,0 10.866,-2.654 15.287,-6.896l3.979,4.596c-5.216,5.125 -11.137,8.483 -19.621,8.483c-15.287,0 -26.687,-12.637 -26.687,-31.462Z" style="fill:#231f20;fill-rule:nonzero;"/><path d="M1557.67,363.321l-11.663,-31.371l-11.758,31.371l23.421,0Zm-14.846,-39.946l6.537,0l23.6,62.217l-7.075,0l-6.008,-16.259l-27.838,0l-6.008,16.259l-6.804,0l23.596,-62.217Z" style="fill:#231f20;fill-rule:nonzero;"/><path d="M1584.35,323.729l37.383,0l0,6.1l-30.754,0l0,22.446l27.483,0l0,6.1l-27.483,0l0,27.217l-6.629,0l0,-61.863Z" style="fill:#231f20;fill-rule:nonzero;"/><path d="M1634.01,323.729l37.384,0l0,6.1l-30.755,0l0,22.446l27.484,0l0,6.1l-27.484,0l0,27.217l-6.629,0l0,-61.863Z" style="fill:#231f20;fill-rule:nonzero;"/><path d="M1712.03,363.321l-11.658,-31.371l-11.758,31.371l23.416,0Zm-14.841,-39.946l6.537,0l23.596,62.217l-7.071,0l-6.008,-16.259l-27.838,0l-6.008,16.259l-6.804,0l23.596,-62.217Z" style="fill:#231f20;fill-rule:nonzero;"/><rect x="1739.33" y="323.729" width="6.629" height="61.863" style="fill:#231f20;fill-rule:nonzero;"/><path d="M1782.37,355.546c10.075,0 15.642,-5.038 15.642,-12.904l0,-0.175c0,-8.134 -5.655,-12.638 -14.934,-12.638l-14.054,0l0,25.717l13.346,0Zm-19.975,-31.817l21.125,0c7.071,0 12.725,2.121 16.258,5.746c3.096,3.096 4.863,7.512 4.863,12.725l0,0.179c0,9.809 -6.1,15.725 -14.667,17.85l16.612,25.363l-7.954,0l-15.554,-24.038l-14.054,0l0,24.038l-6.629,0l0,-61.863Z" style="fill:#231f20;fill-rule:nonzero;"/><path d="M1814.18,377.725l4.15,-5.038c5.129,4.776 10.429,7.692 17.413,7.692c7.421,0 12.375,-4.508 12.375,-10.429l0,-0.088c0,-5.129 -2.479,-8.395 -13.7,-12.375c-12.817,-4.77 -17.854,-9.366 -17.854,-18.116l0,-0.175c0,-9.279 7.779,-16.35 18.649,-16.35c7.159,0 13.08,2.208 18.559,6.983l-3.979,5.125c-4.596,-3.975 -9.459,-6.008 -14.85,-6.008c-7.067,0 -11.659,4.329 -11.659,9.629l0,0.179c0,5.392 2.738,8.483 14.405,12.729c12.545,4.684 17.141,9.721 17.141,17.934l0,0.179c0,9.896 -8.129,16.879 -19.179,16.879c-7.95,0 -15.021,-2.737 -21.471,-8.75Z" style="fill:#231f20;fill-rule:nonzero;"/><path d="M468.883,594.233c0,10.563 2.788,13.346 12.175,13.346c12.03,-0.146 22.734,-6.308 22.734,-21.558c0,-15.109 -10.263,-21.709 -28.159,-21.709l-6.75,0l0,29.921Zm6.896,-34.762c16.133,0 22.879,-6.454 22.879,-18.775c0,-9.971 -5.57,-18.775 -19.508,-18.775c-3.667,0 -6.892,0.587 -8.358,1.466c-1.321,0.884 -1.909,2.496 -1.909,7.338l0,28.746l6.896,0Zm16.575,1.762c14.521,2.196 25.958,8.65 25.958,23.321c0,9.825 -5.424,17.309 -14.079,22.146c-7.479,4.104 -17.162,5.867 -28.75,5.867l-32.412,0l0,-4.104c12.612,-0.884 13.491,-1.763 13.491,-14.084l0,-59.104c0,-12.179 -0.583,-13.058 -12.32,-13.938l0,-4.108l37.696,0c11,0 17.454,1.758 22.004,4.988c5.279,3.516 8.212,9.97 8.212,16.721c0,13.933 -11.587,19.654 -19.8,21.854l0,0.441Z" style="fill:#231f20;fill-rule:nonzero;"/><path d="M561.45,566.071c7.483,0 12.321,-1.171 15.992,-4.104c5.716,-4.404 8.066,-10.267 8.066,-18.188c0,-15.841 -10.416,-21.708 -21.562,-21.708c-4.254,0 -6.746,0.583 -7.921,1.466c-1.029,0.734 -1.612,2.492 -1.612,6.455l0,36.079l7.037,0Zm53.979,47.671c-1.758,0 -3.375,0 -5.137,-0.15c-11,-0.584 -17.159,-3.813 -23.759,-13.346c-5.133,-7.184 -10.412,-16.279 -14.812,-23.467c-2.496,-4.108 -4.988,-5.867 -12.617,-5.867l-4.691,0l0,23.321c0,12.467 1.32,13.346 13.054,14.23l0,4.104l-38.58,0l0,-4.104c12.03,-0.884 13.346,-1.763 13.346,-14.23l0,-58.958c0,-12.475 -1.175,-12.912 -12.608,-13.938l0,-4.108l36.375,0c10.704,0 17.896,1.321 23.467,4.988c5.866,3.812 9.679,10.412 9.679,19.216c0,12.609 -7.775,20.388 -18.629,25.079c2.496,4.842 8.658,14.667 13.058,21.267c5.279,7.629 8.358,11.442 11.879,15.254c3.963,4.4 7.334,6.017 10.563,6.896l-0.588,3.813Z" style="fill:#231f20;fill-rule:nonzero;"/><path d="M634.804,561.821c0,27.575 15.104,47.667 35.788,47.667c16.279,0 30.946,-13.638 30.946,-41.8c0,-30.95 -16.134,-47.376 -35.346,-47.376c-16.43,0 -31.388,14.08 -31.388,41.509Zm81.696,1.904c0,31.683 -22.146,51.046 -48.987,51.046c-26.551,0 -47.671,-20.684 -47.671,-48.846c0,-26.4 18.483,-50.896 49.283,-50.896c24.933,0 47.375,19.363 47.375,48.696Z" style="fill:#231f20;fill-rule:nonzero;"/><path d="M860.7,521.337c-10.121,1.317 -11.442,2.492 -15.842,14.667c-3.375,9.388 -12.175,37.109 -24.2,78.029l-4.55,0c-8.066,-23.466 -18.183,-51.775 -25.666,-73.041l-0.292,0c-8.217,25.812 -16.429,49.429 -23.908,73.041l-4.55,0c-7.771,-26.4 -15.988,-52.212 -24.054,-78.325c-3.663,-12.025 -5.867,-13.2 -14.813,-14.371l0,-4.108l35.642,0l0,4.108c-10.709,1.317 -11,2.492 -8.8,9.971c5.72,19.8 11.441,39.604 17.895,60.43l0.292,0c7.775,-24.934 16.283,-49.134 23.763,-73.042l4.254,0c8.212,24.058 16.721,47.816 25.667,73.042l0.295,0c6.159,-19.505 14.225,-48.255 16.571,-58.667c2.054,-8.8 1.467,-10.417 -10.121,-11.734l0,-4.108l32.417,0l0,4.108Z" style="fill:#231f20;fill-rule:nonzero;"/><path d="M968.383,521.337c-8.212,0.438 -11.733,2.346 -12.32,8.801c-0.588,4.4 -0.88,11 -0.88,24.641l0,59.109l-4.546,0l-62.483,-76.855l-0.296,0l0,36.813c0,13.496 0.442,20.533 0.884,24.792c0.729,7.474 4.104,9.237 14.079,9.825l0,4.104l-34.763,0l0,-4.104c8.509,-0.442 12.175,-2.351 12.909,-9.534c0.437,-4.55 0.879,-11.587 0.879,-25.083l0,-32.271c0,-10.704 -0.292,-11.292 -2.934,-14.808c-2.933,-3.671 -6.162,-4.846 -13.054,-5.43l0,-4.108l21.709,0l61.162,73.629l0.442,0l0,-36.079c0,-13.496 -0.588,-20.241 -1.029,-24.35c-0.734,-6.6 -4.254,-8.508 -14.375,-9.092l0,-4.108l34.616,0l0,4.108Z" style="fill:#231f20;fill-rule:nonzero;"/><path d="M1110.24,521.337c-8.804,0.584 -12.175,2.642 -12.913,8.655c-0.437,3.962 -0.733,10.266 -0.733,23.758l0,12.175c0,17.308 -2.638,29.775 -11.142,38.721c-6.754,7.042 -16.579,10.125 -26.258,10.125c-8.504,0 -17.013,-2.058 -23.467,-7.046c-8.8,-6.746 -12.908,-17.746 -12.908,-34.908l0,-36.663c0,-13.204 -1.175,-13.791 -12.759,-14.817l0,-4.108l37.988,0l0,4.108c-11.587,0.734 -12.763,1.613 -12.763,14.817l0,33.438c0,23.616 9.388,37.108 27.576,37.108c21.12,0 27.716,-17.6 27.716,-41.8l0,-11.15c0,-13.492 -0.433,-19.654 -1.025,-24.204c-0.879,-5.717 -3.954,-7.475 -14.225,-8.209l0,-4.108l34.913,0l0,4.108Z" style="fill:#231f20;fill-rule:nonzero;"/><path d="M1218.65,521.337c-8.212,0.438 -11.733,2.346 -12.321,8.801c-0.583,4.4 -0.883,11 -0.883,24.641l0,59.109l-4.542,0l-62.487,-76.855l-0.292,0l0,36.813c0,13.496 0.442,20.533 0.879,24.792c0.733,7.474 4.108,9.237 14.083,9.825l0,4.104l-34.762,0l0,-4.104c8.504,-0.442 12.175,-2.351 12.908,-9.534c0.438,-4.55 0.88,-11.587 0.88,-25.083l0,-32.271c0,-10.704 -0.296,-11.292 -2.934,-14.808c-2.933,-3.671 -6.162,-4.846 -13.054,-5.43l0,-4.108l21.708,0l61.163,73.629l0.441,0l0,-36.079c0,-13.496 -0.591,-20.241 -1.029,-24.35c-0.733,-6.6 -4.254,-8.508 -14.37,-9.092l0,-4.108l34.612,0l0,4.108Z" style="fill:#231f20;fill-rule:nonzero;"/><path d="M1227.76,612.567l0,-4.104c12.03,-0.884 13.2,-1.763 13.2,-14.23l0,-58.671c0,-12.466 -1.17,-13.345 -13.2,-14.225l0,-4.108l38.867,0l0,4.108c-12.029,0.88 -13.2,1.759 -13.2,14.225l0,58.671c0,12.613 1.171,13.346 13.2,14.23l0,4.104l-38.867,0Z" style="fill:#231f20;fill-rule:nonzero;"/><path d="M1372.98,521.337c-9.971,1.171 -11.879,2.492 -17.45,15.696c-3.963,9.529 -19.512,46.788 -30.508,77l-4.55,0c-9.829,-26.841 -21.855,-58.375 -30.359,-79.641c-4.258,-11.005 -6.6,-12.175 -15.254,-12.909l0,-4.254l35.933,0l0,4.108c-10.412,1.171 -10.999,2.2 -8.654,8.655c3.813,10.412 14.521,38.72 24.346,63.95l0.296,0c7.333,-18.338 18.479,-46.938 23.175,-61.609c2.788,-8.354 1.904,-9.533 -9.975,-10.996l0,-4.108l33,0l0,4.108Z" style="fill:#231f20;fill-rule:nonzero;"/><path d="M1455.42,589.396c-0.883,4.837 -3.821,18.625 -5.137,23.171l-70.7,0l0,-4.104c13.349,-1.03 14.525,-2.2 14.525,-14.084l0,-58.375c0,-13.204 -1.176,-13.641 -12.617,-14.667l0,-4.108l65.421,0c0,3.667 0.729,13.642 1.17,21.125l-4.254,0.734c-1.32,-6.163 -2.787,-9.388 -4.695,-12.621c-2.05,-3.08 -6.013,-4.104 -16.571,-4.104l-11.146,0c-4.55,0 -4.842,0.291 -4.842,4.695l0,33.292l13.783,0c13.205,0 13.938,-1.171 15.842,-11l4.258,0l0,28.163l-4.258,0c-1.904,-10.563 -2.929,-11.442 -15.691,-11.442l-13.934,0l0,27.721c0,6.896 0.879,9.975 3.521,11.883c2.787,1.758 7.921,1.904 15.254,1.904c11.146,0 15.254,-1.171 18.479,-4.983c2.496,-2.933 5.284,-7.925 7.188,-13.792l4.404,0.592Z" style="fill:#231f20;fill-rule:nonzero;"/><path d="M1496.65,566.071c7.483,0 12.321,-1.171 15.987,-4.104c5.721,-4.404 8.067,-10.267 8.067,-18.188c0,-15.841 -10.412,-21.708 -21.558,-21.708c-4.254,0 -6.746,0.583 -7.925,1.466c-1.025,0.734 -1.609,2.492 -1.609,6.455l0,36.079l7.038,0Zm53.975,47.671c-1.758,0 -3.371,0 -5.129,-0.15c-11.004,-0.584 -17.163,-3.813 -23.763,-13.346c-5.133,-7.184 -10.412,-16.279 -14.816,-23.467c-2.492,-4.108 -4.984,-5.867 -12.613,-5.867l-4.692,0l0,23.321c0,12.467 1.317,13.346 13.051,14.23l0,4.104l-38.571,0l0,-4.104c12.025,-0.884 13.345,-1.763 13.345,-14.23l0,-58.958c0,-12.475 -1.174,-12.912 -12.616,-13.938l0,-4.108l36.379,0c10.704,0 17.892,1.321 23.467,4.988c5.866,3.812 9.679,10.412 9.679,19.216c0,12.609 -7.771,20.388 -18.629,25.079c2.496,4.842 8.654,14.667 13.054,21.267c5.283,7.629 8.362,11.442 11.883,15.254c3.959,4.4 7.333,6.017 10.563,6.896l-0.592,3.813Z" style="fill:#231f20;fill-rule:nonzero;"/><path d="M1605.5,539.525c-2.642,-9.387 -6.454,-19.512 -19.212,-19.512c-11.296,0 -16.284,8.216 -16.284,16.141c0,10.704 7.042,15.692 18.625,21.704c11.442,5.867 25.379,12.763 25.379,29.188c0,15.404 -13.058,27.725 -32.562,27.725c-6.017,0 -10.709,-1.179 -14.375,-2.204c-3.667,-1.317 -5.867,-2.346 -7.188,-3.079c-1.17,-3.08 -3.079,-15.696 -3.958,-22.734l4.25,-1.029c2.35,8.946 8.95,23.763 24.058,23.763c11,0 17.6,-6.892 17.6,-17.605c0,-10.85 -8.066,-15.983 -19.066,-21.854c-9.388,-4.983 -24.205,-12.321 -24.205,-28.891c0,-14.08 11.292,-26.109 30.213,-26.109c6.754,0 12.912,1.613 18.483,3.375c0.592,5.279 1.321,10.996 2.496,20.238l-4.254,0.883Z" style="fill:#231f20;fill-rule:nonzero;"/><path d="M1623.11,612.567l0,-4.104c12.026,-0.884 13.2,-1.763 13.2,-14.23l0,-58.671c0,-12.466 -1.174,-13.345 -13.2,-14.225l0,-4.108l38.867,0l0,4.108c-12.029,0.88 -13.2,1.759 -13.2,14.225l0,58.671c0,12.613 1.171,13.346 13.2,14.23l0,4.104l-38.867,0Z" style="fill:#231f20;fill-rule:nonzero;"/><path d="M1750.14,539.962c-1.612,-7.037 -2.933,-10.708 -4.691,-13.05c-2.346,-3.525 -4.842,-4.549 -15.842,-4.549l-10.416,0l0,72.162c0,11.587 1.174,13.054 15.108,13.938l0,4.104l-42.092,0l0,-4.104c13.346,-0.884 14.521,-2.351 14.521,-13.938l0,-72.162l-9.096,0c-12.171,0 -15.108,1.174 -17.017,4.549c-1.754,2.488 -2.933,6.6 -4.691,13.05l-4.254,0c0.737,-8.799 1.466,-18.333 1.762,-26.399l2.933,0c2.051,3.37 3.959,3.666 8.063,3.666l57.942,0c3.958,0 5.133,-0.879 7.479,-3.666l3.079,0c0,6.749 0.737,17.454 1.467,25.962l-4.255,0.437Z" style="fill:#231f20;fill-rule:nonzero;"/><path d="M1853.41,521.337c-10.121,1.171 -11.734,2.642 -17.455,11.588c-6.6,10.708 -11.587,19.213 -18.625,32.121c-1.908,3.812 -2.35,5.429 -2.35,9.242l0,19.945c0,12.321 1.175,13.346 14.667,14.23l0,4.104l-41.508,0l0,-4.104c13.054,-0.884 14.375,-1.763 14.375,-14.23l0,-19.508c0,-2.933 -0.584,-4.25 -3.08,-8.654c-5.133,-9.096 -10.416,-18.629 -18.483,-32.267c-5.867,-9.975 -7.475,-11.587 -16.279,-12.467l0,-4.108l35.054,0l0,4.108c-10.412,1.317 -10.117,3.08 -7.329,7.917c6.158,11.738 13.346,23.763 19.65,34.763c5.429,-9.679 13.346,-24.055 17.454,-33c3.371,-7.334 2.934,-8.509 -8.504,-9.68l0,-4.108l32.413,0l0,4.108Z" style="fill:#231f20;fill-rule:nonzero;"/><rect x="442.396" y="443.1" width="1410.5" height="8.854" style="fill:#939598;fill-rule:nonzero;"/><path d="M138.017,90.754c0.75,1.229 1.725,2.813 3.108,5.1c3.608,5.971 9.204,28.484 16.421,35.946c3.854,-2.612 10.516,-5.979 14.3,-7.337c-0.875,-1.463 -4.925,-8.388 -9.429,-14.28c-8.671,-11.508 -14.892,-17.654 -15.592,-18.65c-2.346,-0.033 -6.325,0.088 -8.808,-0.779Z" style="fill:#fff;fill-rule:nonzero;"/><path d="M203.079,120.729c1.721,-11.783 -2.204,-31.346 -4.517,-36.242c-2.937,-0.745 -5.97,-1.779 -8.466,-2.974c-0.321,1.5 -2.538,9.483 -3.271,21.237c-0.396,6.296 -0.229,15.879 0.929,17.979c3.734,-0.371 9.979,-0.496 15.325,0Z" style="fill:#fff;fill-rule:nonzero;"/><path d="M234.45,169.833c-3.342,-2.75 -7.717,-3.958 -9.392,-2.75l0.063,0.563c0.346,4.054 -2.646,7.612 -6.692,7.979c-4.054,0.358 -7.629,-2.658 -7.971,-6.696l0,-0.316c-2.641,-0.834 -6.858,0.624 -7.437,0.395c-0.338,-0.158 -2.125,-7.65 0.204,-8.591c6.35,-2.588 26.796,-3.855 32.738,7.629c0.695,1.392 0.262,3.242 -1.513,1.787Zm-31.267,20.796c-1.291,3.754 -14.579,4.954 -17.025,0.071c-0.962,-1.937 -2.3,-6.938 -0.496,-5.9c2.955,1.717 13.646,0.5 15.667,0c1.788,-0.458 0.621,-2.95 1.725,-2.646c1.321,0.367 1.321,4.921 0.129,8.475Zm-21.095,-22.046c-0.201,4.063 -3.655,7.184 -7.73,6.98c-4.058,-0.196 -7.166,-3.684 -6.966,-7.717l0.066,-0.813c-0.625,-0.962 -3.933,-2.033 -8.85,0.95c-2.471,1.517 -5.237,0.475 -0.95,-3.245c4.559,-3.955 8.88,-6.246 12.692,-6.721l0.121,-0.034c6.425,-0.441 14.771,0.871 18.675,2.463c1.621,0.658 -0.063,8.608 -0.433,8.517c-1.326,-0.296 -4.217,-1.517 -6.642,-0.963l0.017,0.583Zm77.083,21.567c0,-35.446 -27.771,-63.233 -63.242,-63.233c-34.925,0 -63.242,28.308 -63.242,63.233c0,1.671 0.375,5.054 0.926,8.479c18.191,-4.221 42.316,-3.546 53.029,4.95c17.35,-9.896 42.346,-10.517 60.654,0.15c3.637,-1.821 7.429,-3.133 11.254,-4.229c0.454,-3.404 0.621,-6.975 0.621,-9.35Z" style="fill:#fff;fill-rule:nonzero;"/><path d="M238.296,90.054c-7.433,6.296 -18.796,21.55 -20.246,33.758c3.492,1.409 12.708,5.805 13.967,6.846c9.141,-9.016 7.283,-18.954 10.858,-26.637c1.55,-3.313 3.042,-5.925 3.913,-7.421c-2.971,-1.613 -6.167,-3.904 -8.492,-6.546Z" style="fill:#fff;fill-rule:nonzero;"/><path d="M282.65,114.212c-1.646,0.909 -5.5,3.271 -6.796,4.242c-8.779,6.617 -27.817,15.5 -32.2,20.367c3.496,3.1 8.659,8.658 10.996,13.317c2.138,0.095 8.279,-4.905 20.463,-19.242c3.908,-4.579 8.062,-6.996 15.591,-11.188c-3.104,-2.212 -5.783,-4.795 -8.054,-7.496Z" style="fill:#fff;fill-rule:nonzero;"/><path d="M129.304,167.133c-4.108,-4.054 -12.287,-7.562 -22.933,-6.708c-21.783,1.713 -36.125,0.313 -44.354,-0.854c-14.096,-2.021 -22.85,-0.046 -29.896,-0.046c-21.425,0 0.6,1.929 3.112,2.908c10.084,3.98 30.421,9.017 46.417,7.85c7.817,-0.541 20.9,4.213 23.146,4.992c5.754,2.054 16.154,5.4 21.775,5.296c0.304,-2.567 1.633,-10.217 2.733,-13.438Z" style="fill:#fff;fill-rule:nonzero;"/><path d="M146.846,140.383c-10.954,-8.833 -21.025,-10.72 -37.083,-18.262c-3.638,-1.708 -9.746,-5.821 -10.059,-5.992c-0.433,-0.312 -1.237,-0.816 -2.225,-1.416c-0.941,3.008 -2.858,7.091 -4.616,9.375c2.487,3.233 20.437,23.716 43.408,30.099c2.516,-4.395 6.575,-9.466 10.575,-13.804Z" style="fill:#fff;fill-rule:nonzero;"/><path d="M377.046,156.229c-1.083,-0.171 -5.171,-0.717 -7.788,-0.704c-3.454,0.021 -26.154,0.129 -32.362,1.079c-12.7,1.988 -37.279,0.959 -50.75,0.45c-10.067,-0.392 -21.663,3.534 -25.2,5.434c0,0 3.879,9.691 4.133,16.287c4.279,0.758 8.4,-4.65 20.621,-4.446c12.733,0.213 44.062,-1.496 59.917,-7.666c11.841,-4.588 21.787,-6.888 29.841,-8.521c2.692,-0.563 6.963,-1.088 1.588,-1.913Z" style="fill:#fff;fill-rule:nonzero;"/><path d="M86.158,69.225c2.038,-10.775 12.571,-26.462 36.634,-20.354c2.954,0.746 1.212,8.242 -1.959,6.983c-17.57,-6.887 -26.387,6.438 -29.229,16.946c-0.391,1.429 -6.275,0.892 -5.446,-3.575Zm-8.47,13.154c-9.905,1.088 -12.805,5.925 -14.571,11.475c-0.721,2.083 -6.28,0.592 -5.4,-3.517c2.625,-12.199 15.866,-15.187 20.67,-14.145c1.617,0.312 1.121,6.016 -0.699,6.187Zm-27.555,21.8c-6.771,0 -12.204,0.142 -16.97,5.321c-5.092,5.517 -3.855,8.546 -4.805,9.546c-1.391,1.367 -4.883,-1.046 -4.82,-3.779c0.295,-12.984 15.983,-18.05 25.283,-17.013c3.546,0.421 4.462,5.925 1.312,5.925Zm95.567,-64.512c5.821,-9.221 25.792,-23.413 43.492,-7.792c1.991,1.729 -0.38,8.15 -2.596,6.658c-16.188,-11.129 -28.921,-2.191 -35.671,5.859c-3.238,3.829 -6.613,-2.5 -5.225,-4.725Zm53.404,-1.654c6.338,-10.309 39.479,-19.905 56.479,9.25c1.8,3.174 -0.604,5.02 -2.512,6.329c-1.346,0.962 -2.146,-1.225 -3.038,-2.659c-14.429,-22.829 -40.537,-16.804 -47.554,-6.22c-1.425,2.145 -5.221,-3.667 -3.375,-6.7Zm71.846,16.541c8.792,-3.108 23.767,-4.492 27.763,10.2c1.141,4.108 -3.901,6.067 -5.021,3.188c-4.084,-10.638 -11.763,-10.213 -20.934,-7.292c-4.225,1.388 -3.2,-5.613 -1.808,-6.096Zm40.729,19.933c9.475,-5.408 28.854,-4.445 34.884,12.842c1.033,2.942 -2.871,7.934 -5.292,3.488c-7.288,-13.392 -19.058,-13.359 -28.888,-9.609c-2.204,0.867 -4.191,-4.729 -0.704,-6.721Zm41.717,19.455c9.741,-2.254 21.441,4.862 18.125,17.954c-0.567,2.242 -6.067,2.383 -5.875,0.096c0.837,-10.963 -4.579,-11.846 -11.792,-11.771c-2.733,0.062 -2.525,-5.829 -0.458,-6.279Zm-260.129,-1.084c1.02,-0.862 2.416,-0.75 3.691,-0.341c10.742,3.466 26.146,1.112 33.329,-10.259c1.005,-1.591 2.992,-2.15 4.725,-1.445c7.426,3.008 22.634,4.4 41.15,-14.401c1.392,-1.412 3.642,-1.237 5.184,0.017c16.271,13.054 33.221,13.867 50.412,2.433c1.067,-0.708 2.421,-1.625 3.604,-1.141c1.188,0.479 2.059,1.517 2.33,2.775c5.487,25.392 31.991,23.142 39.975,21.85c1.029,-0.163 2.075,0.087 2.916,0.7c0.838,0.617 1.392,1.542 1.534,2.575c0.866,5.937 7.454,17.458 18.854,23.337c9.746,5.013 20.358,4.625 31.566,-1.15c1.13,-0.579 2.467,-0.575 3.596,0.025c14.384,7.684 27.33,8.138 35.509,1.25c5.762,-4.858 8.104,-12.771 5.812,-19.7c-2.554,-7.712 -10.229,-12.508 -21.041,-13.166c-1.817,-0.113 -3.313,-1.471 -3.588,-3.271c-0.967,-6.154 -4.408,-11.192 -9.954,-14.575c-8.458,-5.154 -20.9,-5.763 -33.283,-1.621c-1.088,0.354 -2.288,0.221 -3.267,-0.383c-0.975,-0.609 -1.629,-1.613 -1.796,-2.755c-0.679,-4.758 -2.742,-11.2 -8.704,-14.845c-6.284,-3.842 -15.775,-3.75 -27.454,0.27c-1.813,0.621 -3.813,-0.17 -4.696,-1.87c-7.504,-14.388 -18.054,-23.734 -30.496,-27.025c-11.142,-2.959 -23.521,-0.809 -33.967,5.9c-1.362,0.879 -3.129,0.816 -4.433,-0.159c-10.513,-7.891 -23.087,-10.408 -34.512,-6.908c-11.121,3.396 -19.596,12.079 -23.871,24.446c-0.35,1.004 -1.088,1.825 -2.05,2.258c-0.971,0.442 -2.071,0.467 -3.059,0.071c-17.046,-6.842 -30.958,-6.671 -40.241,0.504c-7.975,6.163 -10.442,15.875 -10.084,18.704c0.259,1.959 -0.921,3.771 -2.846,4.238l-4.07,0.979c-9.446,2.154 -19.221,4.392 -22.167,19.421c-0.325,1.671 -1.717,2.937 -3.421,3.108c-16.416,1.638 -27.146,7.721 -29.417,16.692c-1.595,6.321 1.338,13.483 7.146,17.408c5.838,3.958 12.875,3.546 19.313,-1.129c1.054,-0.771 2.437,-0.954 3.658,-0.483c9.642,3.683 25.283,2.954 34.767,-4.646c6.875,-5.513 9.571,-13.646 8.017,-24.163c-0.196,-1.333 0.299,-2.662 1.329,-3.525Z" style="fill:#fff;fill-rule:nonzero;"/><path d="M37.363,201.583c-11.646,-0.25 -21.351,3.042 -24.771,9.017c-6.296,11.008 1.104,20.5 5.533,23.162c10.129,6.088 19.779,2.113 20.496,-1.633c-2.767,-3.117 -7.542,-10.171 -10.217,-10.233c-3.887,-0.1 -3.575,-5.146 -0.746,-6.063c6.763,-2.237 13.342,10.605 23.059,17.546c8.662,6.196 20.804,1.658 20.804,-0.887c-5.3,-4.796 -11.629,-30.405 -34.158,-30.909Z" style="fill:#fff;fill-rule:nonzero;"/><path d="M269.096,231.867c8.054,8.162 19.046,4.662 19.554,1.987c-0.9,-1.625 -5.983,-9.112 -8.971,-10.737c-2.441,-1.342 -4.025,-3.575 -2.704,-5.442c2.192,-3.1 6.592,-0.9 9.408,2.496c2.813,3.437 10.571,13.542 13.292,15.091c7.058,3.909 22.625,2.501 21.367,-2.037c-4.309,-6.821 -7.279,-20.596 -20.105,-26.621c-13.324,-6.283 -30.399,-4.646 -46.212,0.996c2.842,5.658 10.25,20.121 14.371,24.267Z" style="fill:#fff;fill-rule:nonzero;"/><path d="M175.571,206.146c-13.338,-6.288 -32.167,-4.188 -47.996,1.433c4.383,5.846 11.675,19.496 15.438,24.1c7.279,8.858 19.733,4.383 20.245,1.709c-0.875,-1.634 -7.558,-10.28 -10.075,-11.726c-2.35,-1.345 -3.716,-3.487 -2.396,-5.354c2.209,-3.104 7.401,0 10.217,3.4c2.813,3.417 10.713,13.313 13.308,15.071c7.788,5.275 22.634,2.525 21.384,-2.004c-5.1,-6.742 -7.325,-20.613 -20.125,-26.629Z" style="fill:#fff;fill-rule:nonzero;"/><path d="M75.65,308.162c-9.467,0.28 -18.733,4.013 -24.175,3.063l0,63.421c0,0 3.433,2.612 12.933,-0.092c12.3,-3.5 17.775,0.346 17.775,0.346l0,-63.987c0,0 -1.433,-2.909 -6.533,-2.751Z" style="fill:#fff;fill-rule:nonzero;"/><path d="M109.612,573.392c9.5,2.712 12.938,0.095 12.938,0.095l0,-63.424c-5.442,0.945 -14.708,-2.792 -24.192,-3.084c-5.087,-0.171 -6.533,2.742 -6.533,2.742l0,63.983c0,0 5.487,-3.829 17.787,-0.312Z" style="fill:#fff;fill-rule:nonzero;"/><path d="M316.133,308.162c-5.087,-0.158 -6.55,2.751 -6.55,2.751l0,63.987c0,0 5.475,-3.846 17.788,-0.346c9.5,2.704 12.942,0.092 12.942,0.092l0,-63.421c-5.442,0.95 -14.709,-2.783 -24.18,-3.063Z" style="fill:#fff;fill-rule:nonzero;"/><path d="M98.354,308.162c-5.087,-0.158 -6.533,2.751 -6.533,2.751l0,63.987c0,0 5.491,-3.846 17.787,-0.346c9.5,2.704 12.938,0.092 12.938,0.092l0,-63.421c-5.442,0.95 -14.708,-2.783 -24.192,-3.063Z" style="fill:#fff;fill-rule:nonzero;"/><path d="M82.2,573.704l0,-63.983c0,0 -1.446,-2.913 -6.529,-2.742c-9.483,0.292 -18.754,4.029 -24.179,3.084l0,63.424c0,0 3.42,2.617 12.92,-0.095c12.3,-3.517 17.788,0.312 17.788,0.312Z" style="fill:#fff;fill-rule:nonzero;"/><path d="M310.787,509.721l0,63.983c0,0 5.471,-3.829 17.767,-0.312c9.509,2.712 12.925,0.095 12.925,0.095l0,-63.424c-5.446,0.945 -14.691,-2.792 -24.158,-3.084c-5.117,-0.171 -6.534,2.742 -6.534,2.742Z" style="fill:#fff;fill-rule:nonzero;"/><path d="M293.429,308.162c-9.466,0.28 -18.746,4.013 -24.196,3.063l0,63.421c0,0 3.442,2.612 12.954,-0.092c12.271,-3.5 17.759,0.346 17.759,0.346l0,-63.987c0,0 -1.417,-2.909 -6.517,-2.751Z" style="fill:#fff;fill-rule:nonzero;"/><path d="M270.437,510.063l0,63.424c0,0 3.425,2.617 12.921,-0.095c12.3,-3.517 17.792,0.312 17.792,0.312l0,-63.983c0,0 -1.454,-2.913 -6.546,-2.742c-9.475,0.292 -18.737,4.029 -24.167,3.084Z" style="fill:#fff;fill-rule:nonzero;"/><path d="M358.583,389.758l-43.583,0l0,5.475l-18.071,0l0,-5.475l-43.579,0l0,-73.65l9.275,0l0,-13.404c9.458,2.283 24.879,-2.925 31.767,-2.908c7.687,0.017 11.57,3.325 11.57,3.325c0,0 3.963,-3.325 11.567,-3.325c6.892,0 22.3,5.146 31.767,2.908l0,13.404l9.287,0l0,73.65Zm22.675,-109.775l-152.104,0l0,137.934l152.104,0l0,-137.934Z" style="fill:#fff;fill-rule:nonzero;"/><path d="M139.633,389.758l-43.583,0l0,5.475l-18.067,0l0,-5.475l-43.6,0l0,-73.65l9.3,0l0,-13.404c9.45,2.283 24.879,-2.925 31.763,-2.908c7.683,0.017 11.583,3.325 11.583,3.325c0,0 3.954,-3.325 11.554,-3.325c6.888,0 22.296,5.146 31.75,2.908l0,13.404l9.3,0l0,73.65Zm23.167,-109.775l-152.221,0l0,137.934l152.221,0l0,-137.934Z" style="fill:#fff;fill-rule:nonzero;"/><path d="M229.154,664.533c38.354,-11.096 76.346,-25.929 102.071,-49.458c9.108,-8.317 16.667,-17.013 22.996,-26.496l-39.221,0l0,5.479l-18.063,0l0,-5.479l-43.604,0l0,-73.671l9.317,0l0,-13.404c9.438,2.288 24.858,-2.904 31.75,-2.904c7.683,0.012 11.567,3.342 11.567,3.342c0,0 3.962,-3.342 11.554,-3.342c6.904,0 22.312,5.154 31.767,2.904l0,13.404l9.316,0l0,66.625c14.004,-24.225 20.659,-53.883 22.921,-95.562l-0.267,-6.213l-152.104,0l0,184.775Z" style="fill:#fff;fill-rule:nonzero;"/><path d="M34.388,580.783l0,-65.875l9.316,0l0,-13.404c9.438,2.288 24.863,-2.904 31.75,-2.904c7.679,0.012 11.583,3.342 11.583,3.342c0,0 3.946,-3.342 11.555,-3.342c6.887,0 22.296,5.154 31.746,2.904l0,13.404l9.3,0l0,73.671l-43.601,0l0,5.479l-18.05,0l0,-5.479l-38.833,0c6.213,9.409 13.55,18.121 22.192,26.217c24.242,22.721 62.275,38.141 101.433,49.612l0,-184.65l-152.2,0l0.317,5.846c1.517,38.117 8.675,69.213 23.492,95.179Z" style="fill:#fff;fill-rule:nonzero;"/><path d="M375.458,158.142c-8.054,1.633 -18,3.933 -29.841,8.521c-15.855,6.17 -47.184,7.879 -59.917,7.666c-12.221,-0.204 -16.342,5.204 -20.621,4.446c-0.254,-6.596 -4.133,-16.287 -4.133,-16.287c3.537,-1.9 15.133,-5.826 25.2,-5.434c13.471,0.509 38.05,1.538 50.75,-0.45c6.208,-0.95 28.908,-1.058 32.362,-1.079c2.617,-0.013 6.705,0.533 7.788,0.704c5.375,0.825 1.104,1.35 -1.588,1.913Zm-74.521,48.462c12.826,6.025 15.796,19.8 20.105,26.621c1.258,4.538 -14.309,5.946 -21.367,2.037c-2.721,-1.549 -10.479,-11.654 -13.292,-15.091c-2.816,-3.396 -7.216,-5.596 -9.408,-2.496c-1.321,1.867 0.263,4.1 2.704,5.442c2.988,1.625 8.071,9.112 8.971,10.737c-0.508,2.675 -11.5,6.175 -19.554,-1.987c-4.121,-4.146 -11.529,-18.609 -14.371,-24.267c15.813,-5.642 32.888,-7.279 46.212,-0.996Zm47.159,-4.366c27.771,2.354 34.375,20.637 31.608,26.57c-2.429,5.209 -19.433,11.971 -45.216,4.704c-8.505,-3.787 -15.255,-23.375 -17.738,-25.879c-1.008,-0.995 15.029,-6.791 31.346,-5.395Zm-138.9,32.208c-8.488,-3.788 -15.242,-23.379 -17.75,-25.883c-1.008,-0.992 15.062,-6.788 31.371,-5.392c27.787,2.35 27.866,19.612 34.691,28.204c2.504,3.146 -22.516,10.338 -48.312,3.071Zm-34.884,0.333c-2.595,-1.758 -10.495,-11.654 -13.308,-15.071c-2.816,-3.4 -8.008,-6.504 -10.217,-3.4c-1.32,1.867 0.046,4.009 2.396,5.354c2.517,1.446 9.2,10.092 10.075,11.726c-0.512,2.674 -12.966,7.149 -20.245,-1.709c-3.763,-4.604 -11.055,-18.254 -15.438,-24.1c15.829,-5.621 34.658,-7.721 47.996,-1.433c12.8,6.016 15.025,19.887 20.125,26.629c1.25,4.529 -13.596,7.279 -21.384,2.004Zm-90.895,-1.746c-8.509,-3.775 -15.238,-23.362 -17.742,-25.87c-0.996,-0.992 15.054,-6.817 31.362,-5.409c27.767,2.363 27.846,19.613 34.688,28.221c2.492,3.133 -22.529,10.308 -48.308,3.058Zm-32.7,0.346c-9.717,-6.941 -16.296,-19.783 -23.059,-17.546c-2.829,0.917 -3.141,5.963 0.746,6.063c2.675,0.062 7.45,7.116 10.217,10.233c-0.717,3.746 -10.367,7.721 -20.496,1.633c-4.429,-2.662 -11.829,-12.154 -5.533,-23.162c3.42,-5.975 13.125,-9.267 24.771,-9.017c22.529,0.504 28.858,26.113 34.158,30.909c0,2.545 -12.142,7.083 -20.804,0.887Zm54.079,-58.104c-2.246,-0.779 -15.329,-5.533 -23.146,-4.992c-15.996,1.167 -36.333,-3.87 -46.417,-7.85c-2.512,-0.979 -24.537,-2.908 -3.112,-2.908c7.046,0 15.8,-1.975 29.896,0.046c8.229,1.167 22.571,2.567 44.354,0.854c10.646,-0.854 18.825,2.654 22.933,6.708c-1.1,3.221 -2.429,10.871 -2.733,13.438c-5.621,0.104 -16.021,-3.242 -21.775,-5.296Zm-11.933,-51.187c1.758,-2.284 3.675,-6.367 4.616,-9.375c0.988,0.6 1.792,1.104 2.225,1.416c0.313,0.171 6.421,4.284 10.059,5.992c16.058,7.542 26.129,9.429 37.083,18.262c-4,4.338 -8.059,9.409 -10.575,13.804c-22.971,-6.383 -40.921,-26.866 -43.408,-30.099Zm-8.942,-3.542c-9.484,7.6 -25.125,8.329 -34.767,4.646c-1.221,-0.471 -2.604,-0.288 -3.658,0.483c-6.438,4.675 -13.475,5.087 -19.313,1.129c-5.808,-3.925 -8.741,-11.087 -7.146,-17.408c2.271,-8.971 13.001,-15.054 29.417,-16.692c1.704,-0.171 3.096,-1.437 3.421,-3.108c2.946,-15.029 12.721,-17.267 22.167,-19.421l4.07,-0.979c1.925,-0.467 3.105,-2.279 2.846,-4.238c-0.358,-2.829 2.109,-12.541 10.084,-18.704c9.283,-7.175 23.195,-7.346 40.241,-0.504c0.988,0.396 2.088,0.371 3.059,-0.071c0.962,-0.433 1.7,-1.254 2.05,-2.258c4.275,-12.367 12.75,-21.05 23.871,-24.446c11.425,-3.5 23.999,-0.983 34.512,6.908c1.304,0.975 3.071,1.038 4.433,0.159c10.446,-6.709 22.825,-8.859 33.967,-5.9c12.442,3.291 22.992,12.637 30.496,27.025c0.883,1.7 2.883,2.491 4.696,1.87c11.679,-4.02 21.17,-4.112 27.454,-0.27c5.962,3.645 8.025,10.087 8.704,14.845c0.167,1.142 0.821,2.146 1.796,2.755c0.979,0.604 2.179,0.737 3.267,0.383c12.383,-4.142 24.825,-3.533 33.283,1.621c5.546,3.383 8.987,8.421 9.954,14.575c0.275,1.8 1.771,3.158 3.588,3.271c10.812,0.658 18.487,5.454 21.041,13.166c2.292,6.929 -0.05,14.842 -5.812,19.7c-8.179,6.888 -21.125,6.434 -35.509,-1.25c-1.129,-0.6 -2.466,-0.604 -3.596,-0.025c-11.208,5.775 -21.82,6.163 -31.566,1.15c-11.4,-5.879 -17.988,-17.4 -18.854,-23.337c-0.142,-1.033 -0.696,-1.958 -1.534,-2.575c-0.841,-0.613 -1.887,-0.863 -2.916,-0.7c-7.984,1.292 -34.488,3.542 -39.975,-21.85c-0.271,-1.258 -1.142,-2.296 -2.33,-2.775c-1.183,-0.484 -2.537,0.433 -3.604,1.141c-17.191,11.434 -34.141,10.621 -50.412,-2.433c-1.542,-1.254 -3.792,-1.429 -5.184,-0.017c-18.516,18.801 -33.724,17.409 -41.15,14.401c-1.733,-0.705 -3.72,-0.146 -4.725,1.445c-7.183,11.371 -22.587,13.725 -33.329,10.259c-1.275,-0.409 -2.671,-0.521 -3.691,0.341c-1.03,0.863 -1.525,2.192 -1.329,3.525c1.554,10.517 -1.142,18.65 -8.017,24.163Zm129.741,-9.713c-1.745,4.409 -2.425,6.734 -3.079,9.213c1.359,-9.475 -1.212,-23.338 -3.97,-35.313c8.27,0.175 16.637,-1.996 24.945,-6.704c0.646,1.871 1.5,3.504 2.346,5.138c-4.687,4.275 -15.891,16.575 -20.242,27.666Zm38.892,-9.266c0.296,-0.513 0.638,-1.175 0.996,-1.888c6.808,2.263 14.279,2.858 21.613,2.054c0.741,2.4 1.887,4.954 3.366,7.53c-0.033,0.008 -0.104,0.058 -0.121,0.062c-3.625,1.729 -14.629,9.254 -30.7,18.208c-4.158,2.3 -6.72,4.517 -8.191,6.034c1.766,-2.379 3.929,-5.525 5.291,-9.004c2.829,-7.242 2.075,-13.059 7.746,-22.996Zm-9.679,2.454c-3.575,7.683 -1.717,17.621 -10.858,26.637c-1.259,-1.041 -10.475,-5.437 -13.967,-6.846c1.45,-12.208 12.813,-27.462 20.246,-33.758c2.325,2.642 5.521,4.933 8.492,6.546c-0.871,1.496 -2.363,4.108 -3.913,7.421Zm-56.05,-1.271c0.733,-11.754 2.95,-19.737 3.271,-21.237c2.496,1.195 5.529,2.229 8.466,2.974c2.313,4.896 6.238,24.459 4.517,36.242c-5.346,-0.496 -11.591,-0.371 -15.325,0c-1.158,-2.1 -1.325,-11.683 -0.929,-17.979Zm9.104,24.167c35.471,0 63.242,27.787 63.242,63.233c0,2.375 -0.167,5.946 -0.621,9.35c-3.825,1.096 -7.617,2.408 -11.254,4.229c-18.308,-10.667 -43.304,-10.046 -60.654,-0.15c-10.713,-8.496 -34.838,-9.171 -53.029,-4.95c-0.551,-3.425 -0.926,-6.808 -0.926,-8.479c0,-34.925 28.317,-63.233 63.242,-63.233Zm-33.512,-16.734c4.504,5.892 8.554,12.817 9.429,14.28c-3.784,1.358 -10.446,4.725 -14.3,7.337c-7.217,-7.462 -12.813,-29.975 -16.421,-35.946c-1.383,-2.287 -2.358,-3.871 -3.108,-5.1c2.483,0.867 6.462,0.746 8.808,0.779c0.7,0.996 6.921,7.142 15.592,18.65Zm16.221,10.588l0.27,0.583c0,0 -5.645,-8.475 -6.325,-9.558c-1.933,-2.954 -4.45,-5.938 -7.266,-9.404c-4.417,-5.35 -8.3,-9.696 -11.3,-12.938c7.4,-1.808 15.85,-6.033 24.946,-14.608c0.97,0.704 1.949,1.237 2.929,1.858c-0.496,2.917 -0.955,5.554 -1.305,7.467c-2.099,11.454 -2.245,20.258 -2.395,24.037c-0.159,3.579 0.191,9.234 0.446,12.563Zm-79.051,-18.992c10.238,1.613 22.155,-0.779 30.825,-8.575c10.642,16.996 10.921,32.384 21.192,42.992c-12.967,-12.55 -24.279,-12.308 -42.829,-22.317c-3.2,-1.725 -7.983,-4.833 -9.329,-5.516c-0.021,-0.017 -0.063,-0.034 -0.083,-0.046c0.208,-1.563 0.341,-3.188 0.341,-4.938c0,-0.496 -0.104,-1.083 -0.117,-1.6Zm175.526,31.117c-12.184,14.337 -18.325,19.337 -20.463,19.242c-2.337,-4.659 -7.5,-10.217 -10.996,-13.317c4.383,-4.867 23.421,-13.75 32.2,-20.367c1.296,-0.971 5.15,-3.333 6.796,-4.242c2.271,2.701 4.95,5.284 8.054,7.496c-7.529,4.192 -11.683,6.609 -15.591,11.188Zm123.062,19.383c-2.287,-1.679 -26.542,-4.666 -30.321,-4.666c-3.687,0 -24.633,0.187 -32.721,1.412c-12.575,1.871 -34.025,1.871 -50.316,0c-5.896,-0.688 -12.421,0.75 -17.763,2.475c1.05,-0.879 2.179,-1.904 3.529,-3.296c4.809,-4.946 10.196,-14.337 19.75,-19.016c2.417,-1.196 4.671,-2.417 6.863,-3.646c8.021,4.012 20.667,6.733 36.379,-0.659c23.45,11.705 37.433,3.784 42.379,-0.383c6.05,-5.096 9.425,-12.625 9.425,-20.204c0,-2.642 -0.408,-5.296 -1.262,-7.85c-3.371,-10.192 -12.671,-16.546 -25.442,-18.038c-0.729,-2.721 -1.888,-5.241 -3.279,-7.629c1.483,-1.887 2.891,-3.671 3.808,-4.746c1.113,-1.4 4.963,-7.791 -5.35,-2.462c-0.533,0.275 -1.517,0.821 -2.783,1.533c-1.442,-1.429 -3.029,-2.742 -4.854,-3.854c-9.617,-5.863 -22.621,-6.575 -36.009,-3c-1.879,-7.138 -5.408,-13.163 -11.029,-16.6c-5.896,-3.608 -13.321,-4.646 -22.066,-3.308c0.541,-1.284 1.041,-2.421 1.462,-3.313c3.888,-8.15 1.792,-10.187 -2.296,-6.579c-4.612,4.092 -7.521,7.004 -9.737,9.354c-8.279,-13.283 -19.179,-22.25 -32.059,-25.667c-11.175,-2.958 -23.246,-1.387 -34.133,3.876c-0.646,-5.475 -1.358,-9.975 -2.15,-12.563c-2.029,-6.608 -4.45,-1.417 -4.829,0.621c-0.454,2.758 -1.079,6.554 -1.8,10.946c-10.875,-5.809 -22.954,-7.417 -34.258,-3.959c-12.417,3.8 -21.884,13.055 -27.338,25.905c-4.508,-1.601 -8.588,-2.575 -12.429,-3.25c-2.275,-2.984 -5.646,-6.771 -10.354,-10.892c-3.175,-2.813 -5.792,-1.35 -3.888,4.2c0.746,2.146 1.392,4.046 1.988,5.846c-8.854,0.487 -15.321,3.396 -19.675,6.754c-8.6,6.646 -12.105,16.167 -12.804,22.204c-0.509,0.125 -1.184,0.287 -1.184,0.287c-7.212,1.659 -16.954,4.371 -23.058,13.992c-1.079,-0.667 -1.867,-1.154 -2.192,-1.367c-18.192,-12.079 -9.804,3.459 -2.766,10.309c-24.196,3.425 -31.021,15.046 -32.767,21.95c-0.446,1.75 -0.667,3.55 -0.667,5.346c0,7.846 4.096,15.712 10.975,20.375c8.084,5.475 17.892,5.137 26.617,-0.442c11.392,3.671 27.483,3.079 39.025,-5.317c6.658,7.175 12.037,12.267 14.95,15.167c7.254,7.217 17.887,12.708 23.333,14.771c-5.379,-2.084 -14.337,-4.321 -23.291,-3.079c-19.342,2.691 -32.18,-0.809 -40.459,-1.629c-13.642,-1.355 -27.666,0.995 -34.65,0.995c-7.4,0 -17.85,3.479 -22.941,4.229c-5.501,0.821 -5.142,4.463 2.512,6.492c7.583,2.054 21.796,3.317 25.654,4.967c12.346,5.362 33,9.837 47.563,8.671c10.333,-0.788 20.733,4.25 23.408,5.041c5.121,1.571 17.825,5.038 23.042,4.942c0,-0.313 0,7.342 0.541,10.954c-1.979,0.654 -3.875,1.346 -5.57,2.125c-5.784,-3.516 -31.159,-13.808 -62.071,-0.996c-6.53,-2.262 -20.355,-9.887 -39.292,-3.654c-23.379,7.717 -19.587,29.129 -11.879,38.942c10.433,13.271 29.733,10.583 35.346,3.904c12.562,8.342 25.375,5.517 34.67,-0.25c6.113,3.592 36.184,9.554 59.038,0.25c3.125,2.325 15.675,8.875 31.783,0.763c9.296,5.516 24.675,5.945 32.567,-1.013c2.862,2.433 11.446,5.917 29.729,5.708c21.959,-0.266 27.059,-3.537 30.133,-6.216c4.734,2.195 17.059,8.641 32.313,2.133c8.225,5.175 24.692,4.875 33.521,-0.917c16.137,7.338 45.742,4.017 53.146,-1.087c13.25,-9.192 6.841,-27.921 -7.746,-36.808c-28.684,-14.455 -55.383,-3.238 -62.471,0.399c-8.446,-5.704 -26.125,-9.362 -44.475,-5.958c0.283,-2.183 -0.042,-4.679 -0.042,-7.462c0,-0.296 -0.041,-0.571 -0.046,-0.871c3.638,-1.104 8.809,-5.021 19.334,-5.679c14.325,-0.967 48.125,-0.517 65.021,-9.175c9.645,-4.929 43.195,-11.505 47.671,-14.117c4.62,-2.646 3.399,-4.604 1.037,-6.221Z" style="fill:#231f20;fill-rule:nonzero;"/><path d="M50.133,104.179c-6.771,0 -12.204,0.142 -16.97,5.321c-5.092,5.517 -3.855,8.546 -4.805,9.546c-1.391,1.367 -4.883,-1.046 -4.82,-3.779c0.295,-12.984 15.983,-18.05 25.283,-17.013c3.546,0.421 4.462,5.925 1.312,5.925Z" style="fill:#231f20;fill-rule:nonzero;"/><path d="M77.688,82.379c-9.905,1.088 -12.805,5.925 -14.571,11.475c-0.721,2.083 -6.28,0.592 -5.4,-3.517c2.625,-12.199 15.866,-15.187 20.67,-14.145c1.617,0.312 1.121,6.016 -0.699,6.187Z" style="fill:#231f20;fill-rule:nonzero;"/><path d="M120.833,55.854c-17.57,-6.887 -26.387,6.438 -29.229,16.946c-0.391,1.429 -6.275,0.892 -5.446,-3.575c2.038,-10.775 12.571,-26.462 36.634,-20.354c2.954,0.746 1.212,8.242 -1.959,6.983Z" style="fill:#231f20;fill-rule:nonzero;"/><path d="M186.596,38.533c-16.188,-11.129 -28.921,-2.191 -35.671,5.859c-3.238,3.829 -6.613,-2.5 -5.225,-4.725c5.821,-9.221 25.792,-23.413 43.492,-7.792c1.991,1.729 -0.38,8.15 -2.596,6.658Z" style="fill:#231f20;fill-rule:nonzero;"/><path d="M253.071,53.592c-1.346,0.962 -2.146,-1.225 -3.038,-2.659c-14.429,-22.829 -40.537,-16.804 -47.554,-6.22c-1.425,2.145 -5.221,-3.667 -3.375,-6.7c6.338,-10.309 39.479,-19.905 56.479,9.25c1.8,3.174 -0.604,5.02 -2.512,6.329Z" style="fill:#231f20;fill-rule:nonzero;"/><path d="M293.692,67.942c-4.084,-10.638 -11.763,-10.213 -20.934,-7.292c-4.225,1.388 -3.2,-5.613 -1.808,-6.096c8.792,-3.108 23.767,-4.492 27.763,10.2c1.141,4.108 -3.901,6.067 -5.021,3.188Z" style="fill:#231f20;fill-rule:nonzero;"/><path d="M341.271,90.817c-7.288,-13.392 -19.058,-13.359 -28.888,-9.609c-2.204,0.867 -4.191,-4.729 -0.704,-6.721c9.475,-5.408 28.854,-4.445 34.884,12.842c1.033,2.942 -2.871,7.934 -5.292,3.488Z" style="fill:#231f20;fill-rule:nonzero;"/><path d="M371.521,111.896c-0.567,2.242 -6.067,2.383 -5.875,0.096c0.837,-10.963 -4.579,-11.846 -11.792,-11.771c-2.733,0.062 -2.525,-5.829 -0.458,-6.279c9.741,-2.254 21.441,4.862 18.125,17.954Z" style="fill:#231f20;fill-rule:nonzero;"/><path d="M182.088,168.583c-0.201,4.063 -3.655,7.184 -7.73,6.98c-4.058,-0.196 -7.166,-3.684 -6.966,-7.717l0.066,-0.813c-0.625,-0.962 -3.933,-2.033 -8.85,0.95c-2.471,1.517 -5.237,0.475 -0.95,-3.245c4.559,-3.955 8.88,-6.246 12.692,-6.721l0.121,-0.034c6.425,-0.441 14.771,0.871 18.675,2.463c1.621,0.658 -0.063,8.608 -0.433,8.517c-1.326,-0.296 -4.217,-1.517 -6.642,-0.963l0.017,0.583Z" style="fill:#231f20;fill-rule:nonzero;"/><path d="M203.183,190.629c-1.291,3.754 -14.579,4.954 -17.025,0.071c-0.962,-1.937 -2.3,-6.938 -0.496,-5.9c2.955,1.717 13.646,0.5 15.667,0c1.788,-0.458 0.621,-2.95 1.725,-2.646c1.321,0.367 1.321,4.921 0.129,8.475Z" style="fill:#231f20;fill-rule:nonzero;"/><path d="M234.45,169.833c-3.342,-2.75 -7.717,-3.958 -9.392,-2.75l0.063,0.563c0.346,4.054 -2.646,7.612 -6.692,7.979c-4.054,0.358 -7.629,-2.658 -7.971,-6.696l0,-0.316c-2.641,-0.834 -6.858,0.624 -7.437,0.395c-0.338,-0.158 -2.125,-7.65 0.204,-8.591c6.35,-2.588 26.796,-3.855 32.738,7.629c0.695,1.392 0.262,3.242 -1.513,1.787Z" style="fill:#231f20;fill-rule:nonzero;"/><path d="M1.267,270.687l0,204.126c0,67.466 16.858,114.183 52.9,147.008c35.8,32.583 89.408,49.129 141.825,61.512c53.837,-12.72 105.654,-28.587 141.804,-61.512c36.058,-32.825 52.812,-79.542 52.812,-147.008l0,-204.126l-389.341,0Zm299.883,239.034l0,63.983c0,0 -5.492,-3.829 -17.792,-0.312c-9.496,2.712 -12.921,0.095 -12.921,0.095l0,-63.424c5.43,0.945 14.692,-2.792 24.167,-3.084c5.092,-0.171 6.546,2.742 6.546,2.742Zm40.329,0.342l0,63.424c0,0 -3.416,2.617 -12.925,-0.095c-12.296,-3.517 -17.767,0.312 -17.767,0.312l0,-63.983c0,0 1.417,-2.913 6.534,-2.742c9.467,0.292 18.712,4.029 24.158,3.084Zm17.125,71.47l0,-66.625l-9.316,0l0,-13.404c-9.455,2.25 -24.863,-2.904 -31.767,-2.904c-7.592,0 -11.554,3.342 -11.554,3.342c0,0 -3.884,-3.33 -11.567,-3.342c-6.892,0 -22.312,5.192 -31.75,2.904l0,13.404l-9.317,0l0,73.671l43.604,0l0,5.479l18.063,0l0,-5.479l39.221,0c-6.329,9.483 -13.888,18.179 -22.996,26.496c-25.725,23.529 -63.717,38.362 -102.071,49.458l0,-184.775l152.104,0l0.267,6.213c-2.262,41.679 -8.917,71.337 -22.921,95.562Zm-137.404,85.4l-25.208,6.417l-25.263,-6.517l0,-195.554l-160.15,0l0,-44.891l160.15,0l0,-146.405l50.471,0l0,146.405l160.058,0l0,44.891l-160.058,0l0,195.654Zm-129.375,-93.229l0,-63.983c0,0 1.446,-2.913 6.533,-2.742c9.484,0.292 18.75,4.029 24.192,3.084l0,63.424c0,0 -3.438,2.617 -12.938,-0.095c-12.3,-3.517 -17.787,0.312 -17.787,0.312Zm-40.333,-0.217l0,-63.424c5.425,0.945 14.696,-2.792 24.179,-3.084c5.083,-0.171 6.529,2.742 6.529,2.742l0,63.983c0,0 -5.488,-3.829 -17.788,-0.312c-9.5,2.712 -12.92,0.095 -12.92,0.095Zm111.287,90.921c-39.158,-11.471 -77.191,-26.891 -101.433,-49.612c-8.642,-8.096 -15.979,-16.808 -22.192,-26.217l38.833,0l0,5.479l18.05,0l0,-5.479l43.601,0l0,-73.671l-9.3,0l0,-13.404c-9.45,2.25 -24.859,-2.904 -31.746,-2.904c-7.609,0 -11.555,3.342 -11.555,3.342c0,0 -3.904,-3.33 -11.583,-3.342c-6.887,0 -22.312,5.192 -31.75,2.904l0,13.404l-9.316,0l0,65.875c-14.817,-25.966 -21.975,-57.062 -23.492,-95.179l-0.317,-5.846l152.2,0l0,184.65Zm-152.2,-384.425l152.221,0l0,137.934l-152.221,0l0,-137.934Zm218.575,0l152.104,0l0,137.934l-152.104,0l0,-137.934Z" style="fill:#231f20;fill-rule:nonzero;"/><path d="M122.546,374.646c0,0 -3.438,2.612 -12.938,-0.092c-12.296,-3.5 -17.787,0.346 -17.787,0.346l0,-63.987c0,0 1.446,-2.909 6.533,-2.751c9.484,0.28 18.75,4.013 24.192,3.063l0,63.421Zm-40.363,0.254c0,0 -5.475,-3.846 -17.775,-0.346c-9.5,2.704 -12.933,0.092 -12.933,0.092l0,-63.421c5.442,0.95 14.708,-2.783 24.175,-3.063c5.1,-0.158 6.533,2.751 6.533,2.751l0,63.987Zm48.15,-58.792l0,-13.404c-9.454,2.238 -24.862,-2.908 -31.75,-2.908c-7.6,0 -11.554,3.325 -11.554,3.325c0,0 -3.9,-3.308 -11.583,-3.325c-6.884,-0.017 -22.313,5.191 -31.763,2.908l0,13.404l-9.3,0l0,73.65l43.6,0l0,5.475l18.067,0l0,-5.475l43.583,0l0,-73.65l-9.3,0Z" style="fill:#231f20;fill-rule:nonzero;"/><path d="M340.313,374.646c0,0 -3.442,2.612 -12.942,-0.092c-12.313,-3.5 -17.788,0.346 -17.788,0.346l0,-63.987c0,0 1.463,-2.909 6.55,-2.751c9.471,0.28 18.738,4.013 24.18,3.063l0,63.421Zm-40.367,0.254c0,0 -5.488,-3.846 -17.759,-0.346c-9.512,2.704 -12.954,0.092 -12.954,0.092l0,-63.421c5.45,0.95 14.73,-2.783 24.196,-3.063c5.1,-0.158 6.517,2.751 6.517,2.751l0,63.987Zm49.35,-58.792l0,-13.404c-9.467,2.238 -24.875,-2.908 -31.767,-2.908c-7.604,0 -11.567,3.325 -11.567,3.325c0,0 -3.883,-3.308 -11.57,-3.325c-6.888,-0.017 -22.309,5.191 -31.767,2.908l0,13.404l-9.275,0l0,73.65l43.579,0l0,5.475l18.071,0l0,-5.475l43.583,0l0,-73.65l-9.287,0Z" style="fill:#231f20;fill-rule:nonzero;"/><path d="M170.729,666.833l25.263,6.517l25.208,-6.417l0,-195.654l160.058,0l0,-44.891l-160.058,0l0,-146.405l-50.471,0l0,146.405l-160.15,0l0,44.891l160.15,0l0,195.554Z" style="fill:#939598;fill-rule:nonzero;"/><path d="M97.037,201.754c-16.308,-1.408 -32.358,4.417 -31.362,5.409c2.504,2.508 9.233,22.095 17.742,25.87c25.779,7.25 50.8,0.075 48.308,-3.058c-6.842,-8.608 -6.921,-25.858 -34.688,-28.221Z" style="fill:#939598;fill-rule:nonzero;"/><path d="M222.817,203.171c-16.309,-1.396 -32.379,4.4 -31.371,5.392c2.508,2.504 9.262,22.095 17.75,25.883c25.796,7.267 50.816,0.075 48.312,-3.071c-6.825,-8.592 -6.904,-25.854 -34.691,-28.204Z" style="fill:#939598;fill-rule:nonzero;"/><path d="M334.488,233.512c25.783,7.267 42.787,0.505 45.216,-4.704c2.767,-5.933 -3.837,-24.216 -31.608,-26.57c-16.317,-1.396 -32.354,4.4 -31.346,5.395c2.483,2.504 9.233,22.092 17.738,25.879Z" style="fill:#939598;fill-rule:nonzero;"/></g></svg>