<?xml version="1.0" encoding="utf-8"?>
<svg version="1.1" xmlns="http://www.w3.org/2000/svg" xmlns:xlink="http://www.w3.org/1999/xlink" width="16" height="16" viewBox="0 0 16 16">
  <rect width="16" height="16" id="icon-bound" fill="none" />
  <path d="M10.503,0.4C10.955,0.14 11.47,0 12,0C12.796,0 13.559,0.316 14.121,0.879C14.684,1.441 15,2.204 15,3L15,9.355C15.622,10.061 16,10.987 16,12C16,14.208 14.208,16 12,16C11.414,16 10.857,15.874 10.356,15.647C9.611,15.876 8.82,16 8,16C3.585,16 0,12.415 0,8C0,3.585 3.585,0 8,0C8.874,0 9.716,0.14 10.503,0.4ZM8.126,11L6.489,11C6.836,12.072 7.352,13.09 7.994,14L8,14C8.176,14 8.351,13.992 8.523,13.977C8.19,13.394 8,12.719 8,12C8,11.655 8.044,11.32 8.126,11ZM13,4L13,3C13,2.735 12.895,2.48 12.707,2.293C12.52,2.105 12.265,2 12,2C11.735,2 11.48,2.105 11.293,2.293C11.105,2.48 11,2.735 11,3L11,10.268C10.402,10.614 10,11.26 10,12C10,13.104 10.896,14 12,14C13.104,14 14,13.104 14,12C14,11.26 13.598,10.614 13,10.268L13,9L12,9L12,8L13,8L13,7L12,7L12,6L13,6L13,5L12,5L12,4L13,4ZM4.41,11L2.804,11C3.388,12.01 4.259,12.833 5.304,13.361C5.244,13.238 5.187,13.115 5.131,12.992C4.837,12.348 4.594,11.682 4.41,11ZM12,11C12.552,11 13,11.448 13,12C13,12.552 12.552,13 12,13C11.448,13 11,12.552 11,12C11,11.448 11.448,11 12,11ZM9,9L9,9.355C9,9.355 9,3 9,3C9,2.695 9.047,2.394 9.136,2.108C8.768,2.037 8.388,2 8,2L7.992,2C7.898,2.134 7.809,2.272 7.722,2.41C7.209,3.22 6.79,4.091 6.494,5L9,5L9,7L6.056,7C5.982,7.66 5.978,8.329 6.052,9L9,9ZM4.043,7L2.083,7C2.028,7.325 2,7.659 2,8C2,8.341 2.028,8.675 2.083,9L4.048,9C3.987,8.341 3.983,7.673 4.043,7ZM5.293,2.645C4.253,3.172 3.386,3.994 2.804,5L4.405,5C4.624,4.188 4.923,3.398 5.293,2.645Z" />
</svg>
