<?xml version="1.0" encoding="utf-8"?>
<svg version="1.1" xmlns="http://www.w3.org/2000/svg" xmlns:xlink="http://www.w3.org/1999/xlink" width="16" height="16" viewBox="0 0 16 16">
  <rect width="16" height="16" id="icon-bound" fill="none" />
  <path d="M16,9L16,14L14,14L14,13.289C12.534,14.951 10.388,16 8,16C3.923,16 0.555,12.944 0.062,9L2.083,9C2.56,11.836 5.029,14 8,14C10.219,14 12.158,12.793 13.196,11L12,11L12,9L16,9ZM9,11L9,9L7,9L7,11L5,11L5,5L7,5L7,7L9,7L9,5L11,5L11,11L9,11ZM0,2L2,2L2,2.711C3.466,1.049 5.612,0 8,0C12.077,0 15.445,3.056 15.938,7L13.917,7C13.44,4.164 10.971,2 8,2C5.781,2 3.842,3.207 2.804,5L4,5L4,7L0,7L0,2Z" />
</svg>
